<svg xmlns="http://www.w3.org/2000/svg" width="58.693" height="41.467" viewBox="0 0 58.693 41.467">
  <g id="crown" transform="translate(1.019 1.001)">
    <path id="Path_21" data-name="Path 21" d="M51,23,49.96,27.5a2.024,2.024,0,0,1-1.973,1.568H7.523A2.024,2.024,0,0,1,5.55,27.5L4.512,23Z" transform="translate(0.572 11.397)" fill="#fff"/>
    <path id="Path_22" data-name="Path 22" d="M58.6,18.6,54.5,36.35H6.148L2.051,18.6a2.023,2.023,0,0,1,2.976-2.211L17.549,23.54,28.641,6.9a2.029,2.029,0,0,1,1.61-.9,2,2,0,0,1,1.671.781L44.93,23.506l10.575-7.049A2.024,2.024,0,0,1,58.6,18.6Z" transform="translate(-1.999 -5.999)" fill="none" stroke="#fff" stroke-width="2"/>
  </g>
</svg>
