<svg xmlns="http://www.w3.org/2000/svg" width="59.733" height="62.393" viewBox="0 0 59.733 62.393">
  <g id="hot" transform="translate(-18.915)">
    <g id="Group_94" data-name="Group 94" transform="translate(18.915)">
      <path id="Path_38" data-name="Path 38" d="M169.67,50.557h13.947a1.556,1.556,0,1,1,0,3.112h-7.845a3.387,3.387,0,0,0-3.384,3.384v2.034a.914.914,0,1,0,1.828,0V57.052a1.558,1.558,0,0,1,1.556-1.556h7.845a3.384,3.384,0,1,0,0-6.767H169.67a1.992,1.992,0,1,1,0-3.983h6.922a.914.914,0,1,0,0-1.828H169.67a3.819,3.819,0,1,0,0,7.639Z" transform="translate(-146.969 -37.688)" fill="#fff"/>
      <path id="Path_39" data-name="Path 39" d="M63.133,97.371h6.392a1.558,1.558,0,0,1,1.556,1.556v2.034a.914.914,0,0,0,1.828,0V98.927a3.388,3.388,0,0,0-3.384-3.384H63.133a1.556,1.556,0,0,1,0-3.112h5.23a.914.914,0,1,0,0-1.828h-5.23a3.384,3.384,0,1,0,0,6.767Z" transform="translate(-53.798 -79.563)" fill="#fff"/>
      <path id="Path_40" data-name="Path 40" d="M283.6,7.058h6.828a3.387,3.387,0,0,0,3.384-3.384A3.678,3.678,0,0,0,290.134,0h-3.051a.914.914,0,0,0,0,1.828h3.051a1.848,1.848,0,0,1,1.846,1.846,1.558,1.558,0,0,1-1.556,1.556H283.6a.914.914,0,1,0,0,1.828Z" transform="translate(-249.564)" fill="#fff"/>
      <path id="Path_41" data-name="Path 41" d="M371.17,96.739h3.051a1.848,1.848,0,0,1,1.846,1.846,1.558,1.558,0,0,1-1.556,1.556h-1.823a3.289,3.289,0,0,0-3.285,3.285v1.317a.914.914,0,0,0,1.828,0v-1.317a1.459,1.459,0,0,1,1.457-1.457h1.823a3.388,3.388,0,0,0,3.384-3.384,3.678,3.678,0,0,0-3.674-3.674H371.17a.914.914,0,1,0,0,1.828Z" transform="translate(-325.718 -83.345)" fill="#fff"/>
      <path id="Path_42" data-name="Path 42" d="M69.115,225.209H67.687a7.345,7.345,0,0,0,1.079-3.837v-4.911a1.594,1.594,0,0,0-1.593-1.593h-.817a5.48,5.48,0,0,0-1.159-1.814,17.964,17.964,0,0,0,.213-2.757v-.608h.923a2.154,2.154,0,0,0,2.151-2.151v-1.146a2.154,2.154,0,0,0-2.151-2.151H65.41v-1.525a1.64,1.64,0,0,0-1.638-1.638h-.648v-.973a2.39,2.39,0,0,0-2.388-2.388h-.829l-2.749-2.749a2.391,2.391,0,0,0-2.809-.421L52.6,192.794a2.388,2.388,0,0,0-3.377,0l-1.712,1.712q-.5-.144-1.028-.269c-1.082-1.347-3.814-2.044-6.52-2.044s-5.438.7-6.52,2.044q-.571.135-1.117.295a3.338,3.338,0,0,0-4.745-1.7c-.016-.018-.03-.037-.046-.055a3.338,3.338,0,0,0-5.737,1.495l-.076-.006a3.341,3.341,0,0,0-3.509,3.163,3.389,3.389,0,0,0,.006.428,3.374,3.374,0,0,0-.462.348,3.319,3.319,0,0,0-1.1,2.308,3.36,3.36,0,0,0,.018.561h-.486a1.64,1.64,0,0,0-1.638,1.638v1.525h-.923a2.154,2.154,0,0,0-2.151,2.151v1.146a2.154,2.154,0,0,0,2.151,2.151h.923v.607a17.894,17.894,0,0,0,8.012,14.912H12.447a1.534,1.534,0,0,0-1.533,1.533v2.437a1.534,1.534,0,0,0,1.533,1.533H69.115a1.534,1.534,0,0,0,1.533-1.533v-2.437a1.534,1.534,0,0,0-1.533-1.533Zm-8.378-25.663a.56.56,0,0,1,.56.56v.973H48.979v-.973a.56.56,0,0,1,.56-.56Zm-5.662-3.285a.559.559,0,0,1,.791,0l1.457,1.457h-3.7Zm-4.563-2.175a.559.559,0,0,1,.791,0l1.681,1.681-.844.844a12.445,12.445,0,0,0-1.946-1.116c-.247-.115-.5-.224-.761-.33Zm-14.518.585a11.192,11.192,0,0,1,3.967-.65,11.2,11.2,0,0,1,3.967.65c.915.367,1.211.752,1.211.88s-.3.513-1.211.88a11.193,11.193,0,0,1-3.967.65,11.2,11.2,0,0,1-3.967-.65c-.915-.367-1.211-.752-1.211-.88S35.079,195.038,35.994,194.671Zm-7.791-.046a1.5,1.5,0,0,1,1.011-.389l.08,0a1.5,1.5,0,0,1,1.3.887c-.3.118-.585.241-.863.371a13.475,13.475,0,0,0-1.278.678,3.321,3.321,0,0,0-.681-.855A1.5,1.5,0,0,1,28.2,194.624Zm2.3,2.528a16.76,16.76,0,0,1,2.574-.934c.634,1.77,3.777,2.692,6.888,2.692s6.254-.922,6.888-2.692a16.753,16.753,0,0,1,2.574.934,11.584,11.584,0,0,1,1.07.566h-.954a2.39,2.39,0,0,0-2.388,2.387v.973h-20.2c0-.056-.008-.111-.008-.167,0-1.338,1.294-2.708,3.551-3.759Zm-3.843-.365a1.512,1.512,0,0,1,.294.486,6.774,6.774,0,0,0-.868.943,3.331,3.331,0,0,0-2-.855,1.508,1.508,0,0,1,1.444-1.074l.08,0A1.5,1.5,0,0,1,26.656,196.788Zm-2.618-2.895a1.5,1.5,0,0,1,1.011-.389l.08,0a1.5,1.5,0,0,1,1.045.5,1.52,1.52,0,0,1,.113.143,3.353,3.353,0,0,0-.174.364,3.4,3.4,0,0,0-.408-.047,3.313,3.313,0,0,0-2.036.563q-.063-.052-.128-.1A1.5,1.5,0,0,1,24.038,193.893Zm-1.214,5.673a1.513,1.513,0,0,1,2.388.493,4.047,4.047,0,0,0-.092.851c0,.056,0,.111.006.167h-2.75a1.513,1.513,0,0,1,.448-1.511Zm-2.291-3.085a1.5,1.5,0,0,1,1.011-.389l.08,0a1.5,1.5,0,0,1,.866.331,3.354,3.354,0,0,0-.294,1.355,3.33,3.33,0,0,0-.282.178,3.317,3.317,0,0,0-1.751-.6l-.108,0a1.5,1.5,0,0,1,.478-.87Zm-2.053,4.13a1.513,1.513,0,0,1,1.509-1.434l.08,0a1.5,1.5,0,0,1,.694.21,3.358,3.358,0,0,0-.24,1.689H18.528A1.514,1.514,0,0,1,18.479,200.612Zm-4.855,7.251a.324.324,0,0,1-.323-.323v-1.146a.324.324,0,0,1,.323-.323h13.02a.914.914,0,1,0,0-1.828H16.376v-1.335H63.582v1.335H31.032a.914.914,0,1,0,0,1.828h35.3a.324.324,0,0,1,.323.323v1.146a.324.324,0,0,1-.323.323H60.827c-.094-.106-.191-.21-.294-.31a2.214,2.214,0,0,0-1.965-.605,2.293,2.293,0,0,0-1.45.916H13.625Zm48.3,1.828h1.655v.607c0,.527-.029,1.049-.08,1.567a5.546,5.546,0,0,0-.958-.334.427.427,0,0,1-.31-.4h0A5.364,5.364,0,0,0,61.928,209.69Zm.181,3.616a3.661,3.661,0,0,1,2.2,1.562H51.165a3.664,3.664,0,0,1,3.069-1.668,2.785,2.785,0,0,0,2.107-.964,14.681,14.681,0,0,0,2.213-3.228.461.461,0,0,1,.337-.263.438.438,0,0,1,.077-.007.4.4,0,0,1,.285.118,3.683,3.683,0,0,1,1.159,2.409,2.249,2.249,0,0,0,1.7,2.039ZM21.1,221.646A15.955,15.955,0,0,1,16.376,210.3v-.607H56.023c-.306.432-.661.885-1.064,1.35a.958.958,0,0,1-.725.332,5.5,5.5,0,0,0-5.118,3.5H48.3a1.6,1.6,0,0,0-1.593,1.593v4.911a7.344,7.344,0,0,0,1.079,3.837H26.467A16.114,16.114,0,0,1,21.1,221.646Zm47.723,7.237H12.743v-1.846H57.72a.914.914,0,0,0,0-1.828H50.076a5.546,5.546,0,0,1-1.539-3.837V216.7h18.4v4.676a5.546,5.546,0,0,1-1.539,3.837H62.107a.914.914,0,0,0,0,1.828H68.82Z" transform="translate(-10.915 -168.318)" fill="#fff"/>
    </g>
  </g>
</svg>
