<svg xmlns="http://www.w3.org/2000/svg" width="23.238" height="23.233" viewBox="0 0 23.238 23.233">
  <path id="Icon_awesome-instagram" data-name="Icon awesome-instagram" d="M11.616,7.9a5.957,5.957,0,1,0,5.957,5.957A5.947,5.947,0,0,0,11.616,7.9Zm0,9.829a3.873,3.873,0,1,1,3.873-3.873A3.88,3.88,0,0,1,11.616,17.727Zm7.59-10.073a1.389,1.389,0,1,1-1.389-1.389A1.386,1.386,0,0,1,19.206,7.654Zm3.945,1.41A6.876,6.876,0,0,0,21.274,4.2a6.921,6.921,0,0,0-4.868-1.877c-1.918-.109-7.667-.109-9.585,0A6.911,6.911,0,0,0,1.953,4.191,6.9,6.9,0,0,0,.076,9.059c-.109,1.918-.109,7.667,0,9.585a6.876,6.876,0,0,0,1.877,4.868,6.93,6.93,0,0,0,4.868,1.877c1.918.109,7.667.109,9.585,0a6.875,6.875,0,0,0,4.868-1.877,6.921,6.921,0,0,0,1.877-4.868c.109-1.918.109-7.662,0-9.58ZM20.673,20.7a3.921,3.921,0,0,1-2.208,2.208c-1.529.607-5.158.467-6.848.467s-5.324.135-6.848-.467A3.921,3.921,0,0,1,2.56,20.7c-.607-1.529-.467-5.158-.467-6.848S1.958,8.53,2.56,7.006A3.921,3.921,0,0,1,4.768,4.8c1.529-.607,5.158-.467,6.848-.467S16.94,4.2,18.464,4.8a3.921,3.921,0,0,1,2.208,2.208c.607,1.529.467,5.158.467,6.848S21.279,19.178,20.673,20.7Z" transform="translate(0.005 -2.238)" fill="#fff"/>
</svg>
