<svg xmlns="http://www.w3.org/2000/svg" width="26.543" height="21.558" viewBox="0 0 26.543 21.558">
  <path id="Icon_awesome-twitter" data-name="Icon awesome-twitter" d="M23.814,8.753c.017.236.017.472.017.707A15.372,15.372,0,0,1,8.354,24.938,15.373,15.373,0,0,1,0,22.5a11.254,11.254,0,0,0,1.314.067,10.9,10.9,0,0,0,6.754-2.324,5.45,5.45,0,0,1-5.086-3.773,6.86,6.86,0,0,0,1.027.084,5.753,5.753,0,0,0,1.432-.185,5.441,5.441,0,0,1-4.362-5.339V10.96a5.479,5.479,0,0,0,2.459.69A5.448,5.448,0,0,1,1.853,4.374a15.463,15.463,0,0,0,11.217,5.693,6.141,6.141,0,0,1-.135-1.246A5.445,5.445,0,0,1,22.349,5.1,10.71,10.71,0,0,0,25.8,3.785a5.425,5.425,0,0,1-2.392,3,10.905,10.905,0,0,0,3.133-.842,11.694,11.694,0,0,1-2.728,2.813Z" transform="translate(0 -3.381)" fill="#fff"/>
</svg>
