<svg xmlns="http://www.w3.org/2000/svg" width="28.312" height="19.907" viewBox="0 0 28.312 19.907">
  <path id="Icon_awesome-youtube" data-name="Icon awesome-youtube" d="M28.771,7.615a3.557,3.557,0,0,0-2.5-2.519c-2.208-.6-11.061-.6-11.061-.6s-8.853,0-11.061.6a3.558,3.558,0,0,0-2.5,2.519,37.319,37.319,0,0,0-.592,6.859,37.319,37.319,0,0,0,.592,6.859,3.5,3.5,0,0,0,2.5,2.479c2.208.6,11.061.6,11.061.6s8.853,0,11.061-.6a3.5,3.5,0,0,0,2.5-2.479,37.319,37.319,0,0,0,.592-6.859,37.319,37.319,0,0,0-.592-6.859ZM12.311,18.683V10.264l7.4,4.21-7.4,4.21Z" transform="translate(-1.05 -4.5)" fill="#fff"/>
</svg>
