<svg xmlns="http://www.w3.org/2000/svg" xmlns:xlink="http://www.w3.org/1999/xlink" width="571.683" height="602.421" viewBox="0 0 571.683 602.421">
  <defs>
    <clipPath id="clip-path">
      <path id="Path_457" data-name="Path 457" d="M90.551,221.128v4.528c0-1.594-1.02,2.646-3.061,1.467V217.11C89.547,218.29,90.567,219.581,90.551,221.128Z" transform="translate(-87.49 -217.11)" fill="#1e079d"/>
    </clipPath>
    <clipPath id="clip-path-2">
      <path id="Path_463" data-name="Path 463" d="M96.774,223.22v6.791A27.994,27.994,0,0,1,83,233.327v-6.791a28.043,28.043,0,0,0,13.774-3.316Z" transform="translate(-83 -223.22)" fill="none"/>
    </clipPath>
    <clipPath id="clip-path-3">
      <path id="Path_467" data-name="Path 467" d="M70.65,226.057V215.79c0,2.917,1.913,5.851,5.771,8.067a28.266,28.266,0,0,0,13.918,3.316v10.57a28.266,28.266,0,0,1-13.854-3.316C72.563,232.195,70.634,228.974,70.65,226.057Z" transform="translate(-70.65 -215.79)" fill="none"/>
    </clipPath>
    <clipPath id="clip-path-4">
      <path id="Path_473" data-name="Path 473" d="M169.86,166.982V165.26a2.821,2.821,0,0,0,.287,1.228v1.722A2.934,2.934,0,0,1,169.86,166.982Z" transform="translate(-169.86 -165.26)" fill="none"/>
    </clipPath>
  </defs>
  <g id="Layer_2" data-name="Layer 2" transform="translate(35.003 6)">
    <g id="OBJECTS" transform="translate(-35.003 -6)">
      <g id="Group_303" data-name="Group 303" transform="translate(45.11 339.478)" opacity="0.37">
        <path id="Path_297" data-name="Path 297" d="M335.033,243.468c70.5,40.7,70.863,106.686.829,147.386s-183.958,40.7-254.454,0-70.863-106.685-.829-147.386S264.536,202.767,335.033,243.468Z" transform="translate(-28.293 -212.943)" fill="#e1e1e1"/>
      </g>
      <g id="Group_304" data-name="Group 304" transform="translate(259.97 494.213)" opacity="0.37">
        <path id="Path_298" data-name="Path 298" d="M322.383,325.845c36.667,21.139,36.811,55.415.43,76.523s-95.542,21.139-132.161,0-36.795-55.415-.43-76.523S285.8,304.706,322.383,325.845Z" transform="translate(-163.067 -310.003)" fill="#e1e1e1"/>
      </g>
      <g id="Group_305" data-name="Group 305" transform="translate(0 315.065)" opacity="0.37">
        <path id="Path_299" data-name="Path 299" d="M159.313,213.477c36.667,21.139,36.811,55.4.43,76.523S64.2,311.14,27.582,290s-36.795-55.4-.43-76.523S122.757,192.338,159.313,213.477Z" transform="translate(0.003 -197.629)" fill="#e1e1e1"/>
      </g>
      <path id="Path_300" data-name="Path 300" d="M250.054,1.275l-.287-.175-.383-.191L249,.733l-.367-.159L248.268.43h-.1l-.191-.112L247.6.207h-.8L246.387,0h-1.578l-.622.159a6.372,6.372,0,0,0-.749.351L237.3,4.081a4.894,4.894,0,0,1,1.371-.526h0a5.6,5.6,0,0,1,1.594,0h0a7.811,7.811,0,0,1,1.722.383h0a10.719,10.719,0,0,1,1.865.861l171.523,98.985,6.138-3.555Z" transform="translate(141.014)" fill="#58affb"/>
      <path id="Path_301" data-name="Path 301" d="M364.289,78.275a4.033,4.033,0,0,0,0-.446c0-.159,0-.3,0-.462v-.909h0a.918.918,0,0,0-.08-.446l-.1-.478a.76.76,0,0,0-.112-.478,4.478,4.478,0,0,0-.128-.494,1.729,1.729,0,0,0-.112-.383h0a1.409,1.409,0,0,0-.159-.478c-.064-.159-.1-.319-.159-.478s-.112-.287-.175-.446-.112-.3-.175-.446l-.143-.351h0a1.127,1.127,0,0,0-.207-.446c-.08-.143-.143-.319-.223-.478l-.287-.558-.335-.59a.339.339,0,0,0,0-.1.318.318,0,0,0,0-.128c-.223-.367-.446-.733-.686-1.1s-.383-.558-.59-.829l-.4-.542-.367-.446-.351-.414-.367-.4h0l-.271-.3-.4-.383-.4-.383-.415-.351-.207-.175h0l-.159-.128-.415-.319-.4-.287-.4-.255-.383-.239h-.1L349,66.271a15.322,15.322,0,0,1,1.849,1.275h0a17.39,17.39,0,0,1,1.69,1.594h0a22.316,22.316,0,0,1,2.9,3.922v.112a22.671,22.671,0,0,1,1.084,2.152h0a20.711,20.711,0,0,1,.845,2.28h0a14.339,14.339,0,0,1,.526,2.28h0a13.846,13.846,0,0,1,.191,2.264l-.335,117.1a9.727,9.727,0,0,1-.191,1.993h0a7.2,7.2,0,0,1-.51,1.594h0a5.627,5.627,0,0,1-.7,1.068,2.475,2.475,0,0,1-.255.319,4.562,4.562,0,0,1-1,.845l6.138-3.571a4.957,4.957,0,0,0,1-.829l.255-.319c.112-.143.239-.271.335-.414a7.178,7.178,0,0,0,.351-.638h0l.191-.462a4.454,4.454,0,0,0,.159-.494.664.664,0,0,1,.128-.462c.127-.159,0-.143,0-.207h0a.8.8,0,0,0,0-.191V196.6a4.188,4.188,0,0,0,0-.446,4.049,4.049,0,0,0,0-.446h0l.335-117.1a3.472,3.472,0,0,0,.3-.335Z" transform="translate(207.389 37.513)" fill="#58affb"/>
      <path id="Path_302" data-name="Path 302" d="M416.492,102.444a20.358,20.358,0,0,1,9.231,15.942l-.335,117.1c0,5.883-4.177,8.242-9.278,5.293L244.651,141.869a20.326,20.326,0,0,1-9.231-15.942l.335-117.112c0-5.867,4.177-8.242,9.278-5.293Z" transform="translate(139.897 1.34)" fill="#003783"/>
      <path id="Path_303" data-name="Path 303" d="M243.6,77.09l13.089-6.68,8.577,13.838,9.549,9.725,9.549-5.771L304.8,81.617l9.215,13.168,9.231,7.589,8.4,12.355,11.367-23.9,13.838,6.6,7.254-5.931,14.986,3.954,22.239-1.977" transform="translate(144.757 41.839)" fill="none" stroke="#16c5dc" stroke-miterlimit="10" stroke-width="1.99"/>
      <path id="Path_304" data-name="Path 304" d="M344.516,81.128c-3.4-1.977-6.186-.4-6.186,3.523A13.5,13.5,0,0,0,344.484,95.3c3.412,1.961,6.17.4,6.186-3.523a13.551,13.551,0,0,0-6.154-10.649Z" transform="translate(201.048 47.701)" fill="#ff4272"/>
      <path id="Path_305" data-name="Path 305" d="M343.256,83.383c-1.594-.893-2.806-.175-2.806,1.594a6.106,6.106,0,0,0,2.774,4.783c1.594.893,2.79.175,2.806-1.594a6.169,6.169,0,0,0-2.774-4.783Z" transform="translate(202.308 49.32)" fill="#212973"/>
      <path id="Path_306" data-name="Path 306" d="M328.456,108.766v1.594a1.2,1.2,0,0,1-1.8,1.036l-7.429-4.288a1.2,1.2,0,0,1-.606-1.036v-1.594a1.2,1.2,0,0,1,1.8-1.036L327.8,107.7a1.2,1.2,0,0,1,.654,1.068Z" transform="translate(189.336 61.369)" fill="#7baeff"/>
      <path id="Path_307" data-name="Path 307" d="M351.828,127.038v1.594a1.2,1.2,0,0,1-1.786,1.052l-30.816-17.7a1.228,1.228,0,0,1-.606-1.036v-1.594a1.2,1.2,0,0,1,1.8-1.036l30.769,17.632a1.18,1.18,0,0,1,.638,1.084Z" transform="translate(189.336 64.269)" fill="#7baeff"/>
      <g id="Group_306" data-name="Group 306" transform="translate(507.972 187.995)" opacity="0.53">
        <path id="Path_308" data-name="Path 308" d="M339.148,129.509V131.1a1.2,1.2,0,0,1-1.785,1.036L319.22,121.745a1.18,1.18,0,0,1-.59-1.036v-1.594a1.2,1.2,0,0,1,1.786-1.036l18.078,10.362A1.164,1.164,0,0,1,339.148,129.509Z" transform="translate(-318.63 -117.922)" fill="#7baeff"/>
      </g>
      <path id="Path_309" data-name="Path 309" d="M347.055,129.172v1.594a1.2,1.2,0,0,1-1.786,1.036l-26.05-14.938a1.18,1.18,0,0,1-.59-1.036v-1.594a1.2,1.2,0,0,1,1.786-1.036l26,14.906A1.18,1.18,0,0,1,347.055,129.172Z" transform="translate(189.342 67.172)" fill="#7baeff"/>
      <g id="Group_307" data-name="Group 307" transform="translate(400.027 64.694)">
        <path id="Path_310" data-name="Path 310" d="M257.828,47.18l4.528-2.63-.048,13.264-4.528,2.63Z" transform="translate(-246.844 -38.221)" fill="#ce7c56"/>
        <path id="Path_311" data-name="Path 311" d="M250.94,43.21l4.528-2.63,10.952,6.329-4.528,2.63Z" transform="translate(-250.908 -40.58)" fill="#ffbe3d"/>
        <path id="Path_312" data-name="Path 312" d="M261.9,48.559l-.048,13.264L250.92,55.51l.032-13.28Z" transform="translate(-250.92 -39.6)" fill="#e2a029"/>
      </g>
      <g id="Group_308" data-name="Group 308" transform="translate(417.356 62.828)">
        <path id="Path_313" data-name="Path 313" d="M268.72,46l4.528-2.63-.064,25.141-4.543,2.63Z" transform="translate(-257.72 -37.057)" fill="#2670d4"/>
        <path id="Path_314" data-name="Path 314" d="M261.83,42.04l4.528-2.63,10.936,6.313-4.528,2.63Z" transform="translate(-261.766 -39.41)" fill="#58affb"/>
        <path id="Path_315" data-name="Path 315" d="M272.79,47.373l-.08,25.141L261.79,66.2l.064-25.141Z" transform="translate(-261.79 -38.43)" fill="#2689fd"/>
      </g>
      <g id="Group_309" data-name="Group 309" transform="translate(434.67 62.701)">
        <path id="Path_316" data-name="Path 316" d="M279.606,45.936l4.528-2.646-.1,35.264-4.528,2.63Z" transform="translate(-268.574 -36.977)" fill="#cc096a"/>
        <path id="Path_317" data-name="Path 317" d="M272.71,41.96l4.528-2.63,10.936,6.313-4.528,2.646Z" transform="translate(-272.614 -39.33)" fill="#ee2c6a"/>
        <path id="Path_318" data-name="Path 318" d="M283.682,47.309l-.1,35.248L272.65,76.244l.1-35.264Z" transform="translate(-272.65 -38.35)" fill="#ee2c6a"/>
      </g>
      <g id="Group_310" data-name="Group 310" transform="translate(451.983 63.625)">
        <path id="Path_319" data-name="Path 319" d="M290.5,46.5l4.528-2.63L294.9,88.205l-4.528,2.63Z" transform="translate(-279.434 -37.557)" fill="#5b5bd6"/>
        <path id="Path_320" data-name="Path 320" d="M283.59,42.54l4.528-2.63,10.936,6.313-4.528,2.63Z" transform="translate(-283.463 -39.91)" fill="#b391ff"/>
        <path id="Path_321" data-name="Path 321" d="M294.574,47.873l-.128,44.335L283.51,85.9l.127-44.335Z" transform="translate(-283.51 -38.93)" fill="#7974f5"/>
      </g>
      <path id="Path_322" data-name="Path 322" d="M190.15,199.91s1.674,5.612-2.917,8.752a40.093,40.093,0,0,1-10.538,5.261c-3.715,1.435-7.142,6.377-5.436,9.725s9.725,4,14.874,2.583,6.01-6.01,10.873-7.732a18.062,18.062,0,0,0,7.971-5.149c1.419-1.435-2.455-14.46-2.455-14.46l-14.141,1.594" transform="translate(101.502 118.185)" fill="#382747"/>
      <path id="Path_323" data-name="Path 323" d="M186.494,110.38s-4.225,28.537-6.871,38.58S168,195.99,169.579,203.913s12.164,27.484,14.794,37,4.783,17.441,6.871,18.493,8.991,0,13.216-6.377.526-2.646.526-2.646-1.594-15.847-3.188-21.139-8.449-22.718-7.971-28.537,11.622-35.408,19.561-49.134a173.115,173.115,0,0,0,12.77-27.979Z" transform="translate(100.662 65.59)" fill="#535e6d"/>
      <path id="Path_324" data-name="Path 324" d="M205.056,208.81a8.928,8.928,0,0,1-4.288,7.429c-4.575,3.188-5.436,5.149-9.151,6.584s-7.158,6.377-5.436,9.725,9.725,4,14.874,2.583,6.01-6.01,10.873-7.732a17.743,17.743,0,0,0,7.971-5.149c1.435-1.435.861-7.142.861-7.142l-17.441-5.723" transform="translate(110.366 124.08)" fill="#382747"/>
      <path id="Path_325" data-name="Path 325" d="M185.75,115.35s1.594,23.26,4.783,29.6,3.7,11.16,5.277,20.071,6.871,69.763,6.377,80.859-.526,23.786,0,25.364,10.57,5.819,19.019,0c0,0,1.594-13.216,2.646-28.537s.558-35.456,2.152-54.953,9.565-54.443,9.565-67.643C235.426,120.117,210.062,128.04,185.75,115.35Z" transform="translate(110.382 68.544)" fill="#636f82"/>
      <path id="Path_326" data-name="Path 326" d="M185.75,115.35s.319,4.48.925,10.044a114.3,114.3,0,0,0,21.076,8.72c16.644,4.783,18.334,11.16,18.334,26.161s-6.377,30.115-5.5,45.18c.59,11.271,1.2,46.934-1.18,66.846a15.463,15.463,0,0,0,1.754-1.052s1.594-13.216,2.646-28.537.606-35.456,2.2-54.953,9.565-54.443,9.565-67.643C235.426,120.117,210.062,128.04,185.75,115.35Z" transform="translate(110.382 68.544)" fill="#535e6d"/>
      <path id="Path_327" data-name="Path 327" d="M181.509,71.447s21.9-18.126,26.353-18.557c5.357-.414,12.02,1.4,13.758,8.975a13.981,13.981,0,0,1-6.377,15.544c-4.017,2.2-44.638,23.228-50.92,23.2s-10.219-5.388-6.17-12.052S181.509,71.447,181.509,71.447Z" transform="translate(93.005 31.396)" fill="#e2edff"/>
      <path id="Path_328" data-name="Path 328" d="M197.872,54.187a2.708,2.708,0,0,1,0,.717c-.335,1.594-1.355,5.771-1.594,7.509s1.594,4.671,6.074,4.783,12.307-1.387,15.129-6.664a123.971,123.971,0,0,1,1.594-15.942Z" transform="translate(116.625 26.496)" fill="#e16b40"/>
      <path id="Path_329" data-name="Path 329" d="M226.337,51.507S247.891,68.6,249.836,74s1.706,20.231-3.4,29.86-4.783,50.712-6.807,57.711-21.251,8.306-32.969,5.436-30.29-12.754-26.608-25.986c5.532-19.657,3.826-44.192,3.38-50.457s1.148-21.825,4.544-32.14c.717-2.184,8.4-5.229,8.4-5.229S204.353,49.467,226.337,51.507Z" transform="translate(106.716 30.244)" fill="#455baf"/>
      <path id="Path_330" data-name="Path 330" d="M220.467,53.285c-18.732-1.722-27.373,1.5-29.509,2.487a55.415,55.415,0,0,0,.239,13.3c1.467,8.864,5.006,33.208,5.006,33.208s11.558-20.008,19.131-28.234c5.357-5.787,10.633-11.16,13.3-13.981C224.214,56.315,220.467,53.285,220.467,53.285Z" transform="translate(113.304 31.368)" fill="#e1e8f2"/>
      <path id="Path_331" data-name="Path 331" d="M197.872,54.187a2.708,2.708,0,0,1,0,.717c-.335,1.594-1.355,5.771-1.594,7.509s1.594,4.671,6.074,4.783,12.307-1.387,15.129-6.664a123.971,123.971,0,0,1,1.594-15.942Z" transform="translate(116.625 26.496)" fill="#ff8654"/>
      <path id="Path_332" data-name="Path 332" d="M188.237,39.894c1.2-14.061,11.351-22.989,24.009-21.331,0,0,13.535,0,20.725,11.16s-.622,21.952-5.612,28.7c-2.1,2.806-3.683,4.958-4.687,6.377-.367.526-.717,1.036-1.1,1.594l-.1.143h0a28.2,28.2,0,0,1-10.761,8.1c-5.245,2.136-11.7,1.849-15.512-1.467S187.025,53.939,188.237,39.894Z" transform="translate(111.737 10.914)" fill="#ff9f75"/>
      <path id="Path_333" data-name="Path 333" d="M193.193,68.877l8.37-7.4,6.76,11.686,6.744-4.257c-7.62,8.242-19.131,28.218-19.131,28.218s-2.949-20.31-4.575-30.577Z" transform="translate(113.715 36.533)" fill="#cfdae4"/>
      <path id="Path_334" data-name="Path 334" d="M192.87,83.233,196.6,70.1l-.558-4.575,4.623-4.081,3.188,5.659-3.715,3.412-1.02,19.5c-2.535,4.113-4.241,7.078-4.241,7.078S193.986,90.694,192.87,83.233Z" transform="translate(114.612 36.509)" fill="#00a5ff"/>
      <path id="Path_335" data-name="Path 335" d="M234.37,29.6A20.422,20.422,0,0,1,235.964,49.6c-5.086,11.16-11.478,16.676-13.264,16.66s-2.726-.319-2.487-1.706S222,58.451,222,58.451s7.349-2.009,6.616-6.855-3.491-5.325-6.377-3.539-3,4.049-4.5,6.074-1.275,6.488-2.662,6.249-2.455-1.435-2.79-3.635A9.39,9.39,0,0,1,213.8,48.87c2.248-3.029-1.483-6.983.622-10.889a26.1,26.1,0,0,1,3.683-5.5s-1.371,2.9-10.426,2.455-12.961.59-16.819-1.084-3.7-6.648-1.754-8.736,7.078-3.762,12.913-6.887,9.565-2.328,17.3-1.69S235.358,24,234.37,29.6Z" transform="translate(111.581 9.479)" fill="#ce7c56"/>
      <path id="Path_336" data-name="Path 336" d="M212.753,37.321s0,14.428-3.97,16.357-3.81-5.835-9.916-7.333-10.315-1.116-10.155,1.786,1.706,13.1,7.142,15.5,13.79,1.148,17.7-1.307,3.459-19.752,5.149-22.686S212.753,37.321,212.753,37.321Z" transform="translate(112.139 22.144)" fill="#ce7c56"/>
      <path id="Path_337" data-name="Path 337" d="M174.927,101.524s-6.042,2.886-11.989-3.061S138.77,60.01,138.77,60.01a10.394,10.394,0,0,1,9.565-8.72s20.55,26.639,24.918,31.311S182.547,96.263,174.927,101.524Z" transform="translate(82.465 30.478)" fill="#ff9f75"/>
      <path id="Path_338" data-name="Path 338" d="M221.743,105.014s-11.271-26.113-10.426-30.5c1.084-5.245,4.7-11.16,12.451-10.7A13.981,13.981,0,0,1,236.92,74.246c1,4.464,8.37,39.345,6.6,45.324s-7.971,8.29-13.3,2.551S221.743,105.014,221.743,105.014Z" transform="translate(125.547 37.908)" fill="#e2edff"/>
      <path id="Path_339" data-name="Path 339" d="M255.113,99.37s-1.754-6.377-10.139-7.062-49.421,6.377-49.421,6.377a10.394,10.394,0,0,0-.4,12.9s38.038-1.387,44.495-1.2S256.149,108.584,255.113,99.37Z" transform="translate(114.752 54.823)" fill="#ff9f75"/>
      <path id="Path_340" data-name="Path 340" d="M196.1,95.06c-2.072-.893-7.971-3.507-9.135-3.81-1.323.159-1.77,3.412.446,4.591s5.293,3.093,5.6,4.432-2.646,4.783-3.986,5.6-11.3,2.646-11.734,4.3,2.312,2.328,4.081,1.881a23.721,23.721,0,0,1,3.874-.558,3.587,3.587,0,0,0,1.977,1.77c1.594.67,2.216.558,2.758,1.116a5.851,5.851,0,0,0,3.651,1.323c2.1.223,6.377-1.77,9.278-2.551s5.739-1.594,5.739-1.594l-2.567-10.538a2.455,2.455,0,0,0-1.243-1.594C202.7,98.312,197.693,95.746,196.1,95.06Z" transform="translate(105.326 54.223)" fill="#ff9f75"/>
      <path id="Path_341" data-name="Path 341" d="M156.321,59.942s-1.786-5.946-3.954-8.115a13.774,13.774,0,0,1-3.97-6.377c-.8-2.583.988-8.72-.8-8.72s-4.352,3.364-4.161,5.946,0,5.149-.59,5.739-7.732-3.954-9.31-5.548-6.536-5.341-7.716-3.954-.606,2.583,1.594,4.368,7.716,5.341,8.7,6.728,0,1.18-2.567-.207-2.375,1.2-1.786,3.188-1.786,2.184-.191,4.368.191,1.387,1.977,3.555,2.375,3.38,5.739,4.177a21.06,21.06,0,0,1,8.928,4.783c1.786,1.786,8.322-.988,8.322-.988Z" transform="translate(74.415 21.826)" fill="#ff9f75"/>
      <path id="Path_342" data-name="Path 342" d="M48.953,85.58s7.094,1.594,8.481,8.29-4.926,12.036-1.77,17.17,7.286,4.145,8.481,12.626-12.626,22.877-22.686,8.481S48.953,85.58,48.953,85.58Z" transform="translate(22.792 50.854)" fill="#4d2c63"/>
      <path id="Path_343" data-name="Path 343" d="M26.09,129.422s-13.28,3.555-16.819,11.51S6.625,209.086,25.213,233.86s53.151,28.329,61.123,24.79,53.933-26.544,57.472-38.054-14.157-20.358-23.913-24.79-15.942-10.618-21.251-26.544-7.971-43.379-14.157-47.827S63.267,109.957,26.09,129.422Z" transform="translate(4.539 69.202)" fill="#ffbe3d"/>
      <path id="Path_344" data-name="Path 344" d="M70.392,144.053s-4.464-26.353-7.445-29.366c-3.555-3.555-9.422-6.377-15.289-2.009a13.1,13.1,0,0,0-5.006,14.954c1.594,4.033,16.421,37.528,20.884,41.306s10.586,2.407,11.765-4.783S70.392,144.053,70.392,144.053Z" transform="translate(24.947 65.635)" fill="#ee428c"/>
      <path id="Path_345" data-name="Path 345" d="M53.841,162.6s5.006,7.812,13.089,5.325S86.4,127.559,89.249,125.04c0,0,1.243-9.071-7.206-9.39,0,0-19.4,31.884-22.224,35.376S52.9,158.232,53.841,162.6Z" transform="translate(31.917 68.722)" fill="#ff8654"/>
      <g id="Group_311" data-name="Group 311" transform="translate(32.734 341.818)">
        <path id="Path_346" data-name="Path 346" d="M83.009,219.241l-8.322-4.831L43.52,219.543l8.322,4.846Z" transform="translate(-6.869 -214.41)" fill="#00265a"/>
        <path id="Path_347" data-name="Path 347" d="M54.023,222.476,45.7,217.63l-5.851,3.4,8.322,4.831Z" transform="translate(-9.05 -212.497)" fill="#002f71"/>
        <path id="Path_348" data-name="Path 348" d="M28.852,243.8,20.53,238.97v3.523l8.322,4.831Z" transform="translate(-20.53 -199.816)" fill="#002a65"/>
        <path id="Path_349" data-name="Path 349" d="M59.652,224.591,51.33,219.76l-30.8,30.625,8.322,4.83Z" transform="translate(-20.53 -211.231)" fill="#00357f"/>
        <path id="Path_350" data-name="Path 350" d="M56.55,225.969l-30.8,30.625v3.523l30.816-26.464,5.867-3.38,31.135-9.31V217.44L62.4,222.589Z" transform="translate(-17.428 -212.609)" fill="#001e46"/>
      </g>
      <g id="Group_312" data-name="Group 312" transform="translate(31.379 341.818)">
        <path id="Path_351" data-name="Path 351" d="M19.69,219.241l8.322-4.831,31.151,5.133-8.306,4.846Z" transform="translate(-19.674 -214.41)" fill="#00265a"/>
        <path id="Path_352" data-name="Path 352" d="M39.24,222.476l8.306-4.846,5.867,3.4-8.322,4.831Z" transform="translate(-8.057 -212.497)" fill="#002f71"/>
        <path id="Path_353" data-name="Path 353" d="M62.23,243.8l8.322-4.831-.016,3.523-8.306,4.831Z" transform="translate(5.604 -199.816)" fill="#002a65"/>
        <path id="Path_354" data-name="Path 354" d="M42.91,224.591l8.322-4.831,30.8,30.625-8.322,4.83Z" transform="translate(-5.876 -211.231)" fill="#00357f"/>
        <path id="Path_355" data-name="Path 355" d="M56.714,225.969l30.8,30.625v3.523L56.7,233.653l-5.867-3.38-31.151-9.31.016-3.523,31.167,5.149Z" transform="translate(-19.68 -212.609)" fill="#001e46"/>
      </g>
      <g id="Group_313" data-name="Group 313" transform="translate(31.379 341.818)">
        <path id="Path_356" data-name="Path 356" d="M19.69,219.241l8.322-4.831,31.151,5.133-8.306,4.846Z" transform="translate(-19.674 -214.41)" fill="#00265a"/>
        <path id="Path_357" data-name="Path 357" d="M39.24,222.476l8.306-4.846,5.867,3.4-8.322,4.831Z" transform="translate(-8.057 -212.497)" fill="#002f71"/>
        <path id="Path_358" data-name="Path 358" d="M62.23,243.8l8.322-4.831-.016,3.523-8.306,4.831Z" transform="translate(5.604 -199.816)" fill="#002a65"/>
        <path id="Path_359" data-name="Path 359" d="M42.91,224.591l8.322-4.831,30.8,30.625-8.322,4.83Z" transform="translate(-5.876 -211.231)" fill="#00357f"/>
        <path id="Path_360" data-name="Path 360" d="M56.714,225.969l30.8,30.625v3.523L56.7,233.653l-5.867-3.38-31.151-9.31.016-3.523,31.167,5.149Z" transform="translate(-19.68 -212.609)" fill="#001e46"/>
      </g>
      <g id="Group_314" data-name="Group 314" transform="translate(63.423 312.149)">
        <path id="Path_361" data-name="Path 361" d="M49.867,198.03l-.1,35.025L43.65,236.61l.1-35.025Z" transform="translate(-37.48 -194.475)" fill="#0046a6"/>
        <path id="Path_362" data-name="Path 362" d="M46.045,201.585l-.1,35.025-6.17-3.555.1-35.025Z" transform="translate(-39.78 -194.475)" fill="#003783"/>
        <path id="Path_363" data-name="Path 363" d="M52.131,199.355,46.01,202.91l-6.17-3.555,6.138-3.555Z" transform="translate(-39.744 -195.8)" fill="#4da5dc"/>
      </g>
      <path id="Path_364" data-name="Path 364" d="M104.863,243.7s7.828,8.625,14.348,11.51c6.5,6.122,12.419,10.586,11.638,15.321-1.594,4.783-16.309,1.052-22.319-2.359a46.838,46.838,0,0,1-11.048-9.47l1,2.838a.861.861,0,0,1-1.164,1.084,5.772,5.772,0,0,1-2.471-1.817c-1.307-1.849-2.63-7.971-1.307-10.793S104.863,243.7,104.863,243.7Z" transform="translate(55.265 144.812)" fill="#382747"/>
      <path id="Path_365" data-name="Path 365" d="M67.44,205.729a41.45,41.45,0,0,0,10.235,25.189c10.219,11.462,24.28,31.884,28.919,45.148,4.783,8.529,9.039,11.542,16.293,5.58,2.886-1.323-2.63-13.423-11.16-29.876-8.322-16.07-22.128-50.728-25.954-54.554S68.715,188.686,67.44,205.729Z" transform="translate(40.079 115.029)" fill="#ff8654"/>
      <path id="Path_366" data-name="Path 366" d="M105.812,244.034a31.518,31.518,0,0,0,9.661,11.239c7.11,5.325-1.833,10.793-6.839,9.215S94.7,256.326,93.9,253.44,94.827,236.733,105.812,244.034Z" transform="translate(55.704 143.761)" fill="#ff8654"/>
      <path id="Path_367" data-name="Path 367" d="M116.743,230.83s7.828,8.625,14.348,11.51c6.5,6.122,12.419,10.586,11.638,15.321-1.594,4.783-16.309,1.052-22.319-2.359a46.838,46.838,0,0,1-11.048-9.47l1,2.838a.861.861,0,0,1-1.164,1.084,5.772,5.772,0,0,1-2.471-1.817c-1.307-1.849-2.63-7.891-1.307-10.793S116.743,230.83,116.743,230.83Z" transform="translate(62.324 137.165)" fill="#382747"/>
      <path id="Path_368" data-name="Path 368" d="M79.32,192.859a41.45,41.45,0,0,0,10.235,25.157c10.219,11.494,24.28,31.885,28.983,45.164,4.783,8.545,9.039,11.558,16.293,5.6,2.886-1.323-2.631-13.423-11.16-29.876-8.354-16.1-22.16-50.728-25.986-54.554S80.6,175.816,79.32,192.859Z" transform="translate(47.138 107.382)" fill="#ff8654"/>
      <path id="Path_369" data-name="Path 369" d="M117.692,231.164a31.518,31.518,0,0,0,9.661,11.239c7.11,5.325-1.833,10.793-6.839,9.215s-13.933-8.162-14.731-11.048S106.707,223.863,117.692,231.164Z" transform="translate(62.763 136.113)" fill="#ff8654"/>
      <path id="Path_370" data-name="Path 370" d="M32.277,167.682s-4.783,22.1,5.915,36.3,42.614,22.893,44.192,25.253,5.133,6.377,9.087,6.377,34.722-14.587,38.66-29.987c-1.18-10.649-4.783-13.806-9.071-17.361S88.7,171.7,87.119,169.324a23.037,23.037,0,0,1-2.359-7.094Z" transform="translate(18.551 96.401)" fill="#5155d4"/>
      <path id="Path_371" data-name="Path 371" d="M37.031,117.352s-15.607,7.509-18.6,13.12-3,19.131,8.609,31.486C34.161,172.081,38.29,199.8,42.276,206.6c5.006,6.5,28.7,7.971,41.45,3s12.658-17.345,10-21.554c-7.509-11.829-4.5-22.67-4.257-28.409s4.783-12.244,2.009-20.247-15.5-13.487-17.536-15.942-7.971-11.733-14.747-11.989S37.031,117.352,37.031,117.352Z" transform="translate(9.956 66.223)" fill="#ee428c"/>
      <path id="Path_372" data-name="Path 372" d="M93.038,174.975c-7.509-11.829-4.5-22.67-4.257-28.409.175-3.97,2.375-8.29,2.822-13.216-8.625,8.051-21.347,17.122-35.264,17.536-16.086.494-30.29-8.593-38.389-15.273a39.3,39.3,0,0,0,8.37,13.3c7.126,10.123,11.255,37.847,15.241,44.638,5.006,6.5,28.7,7.971,41.45,3S95.7,179.184,93.038,174.975Z" transform="translate(10.671 79.24)" fill="#cc096a" opacity="0.76"/>
      <path id="Path_373" data-name="Path 373" d="M84.4,161.348A33.192,33.192,0,0,1,82.679,147c-30.163,18.286-54.889,8.72-54.889,8.72h0a31.087,31.087,0,0,0,1.69,7.62s-.223.1-.207.143c.335,1.243.542,2.471.861,3.7v.175c.143.51.239,1.036.383,1.594l.478,1.913v.143C60.312,176.764,78.263,166.035,84.4,161.348Z" transform="translate(16.518 87.351)" fill="#4d2c63"/>
      <g id="Group_315" data-name="Group 315" transform="translate(78.519 159.246)">
        <path id="Path_374" data-name="Path 374" d="M91.992,100.64a2.328,2.328,0,0,1,1.849.1c-1.355-.781-2.3-1.244-3.794-.383l-1.77,1.036L78.154,107.24,54.782,120.791a9.677,9.677,0,0,0-5.086,5.516c-.8,2.583-.287,5.835-.287,8.481v18.987a3.667,3.667,0,0,0,2.216,3.619c-1.307-.765-1.1-2.567-1.1-3.874V133.1c0-3.491-.335-6.823,2.328-9.565a27.1,27.1,0,0,1,6.042-3.81L79,108.037l8.784-5.054a23.117,23.117,0,0,1,4.209-2.344Z" transform="translate(-49.249 -99.889)" fill="#e2edff"/>
        <path id="Path_375" data-name="Path 375" d="M90.732,100.783c2.057-1.2,3.746-.255,3.746,2.12v26.161a8.226,8.226,0,0,1-3.73,6.377L53.89,156.852c-2.072,1.18-3.746.223-3.762-2.136L50,128.539a8.146,8.146,0,0,1,3.715-6.377Z" transform="translate(-48.803 -99.666)" fill="#7baeff"/>
      </g>
      <path id="Path_376" data-name="Path 376" d="M41.684,155.93s-4.528-26.337-7.445-29.35c-3.555-3.571-9.422-6.377-15.3-2.025a13.152,13.152,0,0,0-5.006,14.954c1.594,4.033,16.436,37.528,20.9,41.306s10.586,2.407,11.765-4.783S41.684,155.93,41.684,155.93Z" transform="translate(7.884 72.697)" fill="#ee428c"/>
      <path id="Path_377" data-name="Path 377" d="M25.132,174.506s5.006,7.828,13.152,5.325,19.4-40.4,22.223-42.9c0,0,1.243-9.087-7.206-9.39,0,0-19.4,31.885-22.223,35.36S24.191,170.106,25.132,174.506Z" transform="translate(14.856 75.787)" fill="#ff8654"/>
      <path id="Path_378" data-name="Path 378" d="M42.52,133.319s1.323-7.971,4.783-10.267,11.319-4.464,13.423-1.833.781,13.152-1.323,14.2a70.889,70.889,0,0,1-7.094,2.63s-1.849,3.954-4.209,3.954S42.52,133.319,42.52,133.319Z" transform="translate(25.271 71.315)" fill="#ff8654"/>
      <path id="Path_379" data-name="Path 379" d="M73.144,112.884a3.667,3.667,0,0,0-1.594,2.886c0,1.052.749,1.483,1.594.957a3.667,3.667,0,0,0,1.594-2.886C74.818,112.788,74.069,112.358,73.144,112.884Z" transform="translate(42.521 66.945)" fill="#eaeeee"/>
      <path id="Path_380" data-name="Path 380" d="M48.276,115.81a2.056,2.056,0,0,0,0,.717c.319,1.594,1.339,5.739,1.594,7.461s-1.594,4.655-6.026,4.783S31.6,127.4,28.794,122.155A124.776,124.776,0,0,0,27.2,106.34Z" transform="translate(16.167 63.19)" fill="#e16b40"/>
      <path id="Path_381" data-name="Path 381" d="M64.039,98.544C60.85,84.9,49.484,77.612,37.288,81.1c0,0-13.312,2.009-18.684,14.045s3.858,21.49,9.757,27.453c2.471,2.439,4.352,4.32,5.548,5.532.43.446.845.909,1.291,1.323l.128.128h0a27.836,27.836,0,0,0,11.781,6.377c5.452,1.339,11.765.112,15.034-3.715S67.291,112.191,64.039,98.544Z" transform="translate(10.097 47.678)" fill="#ff8654"/>
      <path id="Path_382" data-name="Path 382" d="M64.7,87.7s6.058,1.849,1.594,11.048-11.829,6.377-12.1,13.949-1.307,10.777-7.891,14.46,1.323,7.365,1.323,19.992-12.387,14.46-17.648,10.793-.781-7.365-7.62-14.2-14.476-10-9.215-19.465,5.532-8.944,4.783-21.57,4.958-20.518,16.261-23.993S57.079,75.6,64.7,87.7Z" transform="translate(6.774 45.64)" fill="#4d2c63"/>
      <g id="Group_316" data-name="Group 316" transform="translate(173.862 444.97)">
        <path id="Path_383" data-name="Path 383" d="M203.018,297.76c-.893,9.916-10.235,16.66-18.652,20.279a71.483,71.483,0,0,1-29.19,5.42,69.284,69.284,0,0,1-29.669-6.584c-7.971-3.922-16.468-11.064-16.436-20.725,0,7.062.462,12.9,5.564,18.413,6.536,7.094,16.4,10.92,25.683,12.833,18.11,3.746,42.757,1.929,56.5-12,5.532-5.612,6.377-11.51,6.377-18.971A6.29,6.29,0,0,0,203.018,297.76Z" transform="translate(-109.046 -268.99)" fill="#adcdfc"/>
        <path id="Path_384" data-name="Path 384" d="M189.221,287.095c18.429,10.649,18.557,27.9.239,38.532s-48.1,10.649-66.527,0-18.509-27.883-.207-38.532S170.807,276.461,189.221,287.095Z" transform="translate(-109.055 -279.114)" fill="#e2edff"/>
      </g>
      <g id="Group_317" data-name="Group 317" transform="translate(214.73 427.268)">
        <path id="Path_385" data-name="Path 385" d="M146.532,270.64l-.112,41.115-7.19,4.177.112-41.115Z" transform="translate(-131.992 -266.447)" fill="#c7d8f2"/>
        <path id="Path_386" data-name="Path 386" d="M142.039,274.817l-.112,41.115-7.238-4.177.112-41.115Z" transform="translate(-134.69 -266.447)" fill="#7baeff"/>
        <path id="Path_387" data-name="Path 387" d="M149.188,272.2,142,276.38,134.76,272.2l7.19-4.193Z" transform="translate(-134.648 -268.01)" fill="#4da5dc"/>
      </g>
      <g id="Group_318" data-name="Group 318" transform="translate(37.145 215.844)">
        <path id="Path_388" data-name="Path 388" d="M383.2,201.474c-.1,32.347-25.348,57.217-51.382,72.649-30.051,17.807-65.188,26.528-99.719,29.764A296.72,296.72,0,0,1,127.4,295.422,217.6,217.6,0,0,1,79.2,276.291a133.6,133.6,0,0,1-36.572-28.7c-11.431-13.1-19.338-29.557-19.29-47.2,0,8.162-.383,16.341,1.307,24.392a76.4,76.4,0,0,0,16.612,32.761,130.169,130.169,0,0,0,35.615,28.871,210.554,210.554,0,0,0,47.827,19.721A299.5,299.5,0,0,0,227.331,315.7c34.34-2.551,68.982-10.841,99.384-27.325,26.1-14.141,52.609-37.464,56.005-68.775C383.405,213.638,383.118,207.516,383.2,201.474Z" transform="translate(-23.297 -96.767)" fill="#adcdfc"/>
        <path id="Path_389" data-name="Path 389" d="M330.068,165.887c70.5,40.7,70.863,106.686.829,147.386s-183.958,40.7-254.47.048S5.58,206.635,75.614,165.935,259.571,125.2,330.068,165.887Z" transform="translate(-23.286 -135.391)" fill="#e2edff"/>
      </g>
      <path id="Path_390" data-name="Path 390" d="M202.991,194.84s-2.567-2.965-4.926-6.122-4.783-5.532-7.509-4.544a2.9,2.9,0,0,0-2.168,3.364s-.4,2.168-.781,4.926.191,7.11,4.336,8.689a28.9,28.9,0,0,0,7.971,1.77Z" transform="translate(111.426 109.306)" fill="#ea9273"/>
      <path id="Path_391" data-name="Path 391" d="M195.188,205.4s-4.352-2.567-3.364-6.5,2.184-6.377,2.375-8.1-.988-7.094.988-8.083,2.168.781,2.359,2.567a27.1,27.1,0,0,0,2.567,8.274c1.18,1.785,2.758,4.352,2.758,4.352S199.333,205,195.188,205.4Z" transform="translate(113.904 108.405)" fill="#ff9f75"/>
      <path id="Path_392" data-name="Path 392" d="M240.007,234.86s-7.971,5.357-16.723-2.264-27.771-30.019-29.924-32.012A11.319,11.319,0,0,1,200.5,190.7s14.141,11.813,21.474,16.8S253.526,225.837,240.007,234.86Z" transform="translate(114.904 113.319)" fill="#fff"/>
      <path id="Path_393" data-name="Path 393" d="M193.95,195a11.477,11.477,0,0,0-.59,3c2.152,1.993,21.155,24.392,29.924,32.012,5.659,4.91,10.952,4.432,14.013,3.475C221.482,225.4,201.7,203.848,193.95,195Z" transform="translate(114.904 115.874)" fill="#c7d8f2"/>
      <path id="Path_394" data-name="Path 394" d="M243.8,211.08s30.29-8.465,34.913-6.887c5.564,1.977,11.478,6.807,9.836,15.225a15.448,15.448,0,0,1-13.344,12.849c-5.038.414-48.1,1.483-54.379-1.355s-7.875-10.012-.813-14.922S243.8,211.08,243.8,211.08Z" transform="translate(127.989 121.22)" fill="#fff"/>
      <path id="Path_395" data-name="Path 395" d="M288.542,214.1c.08-.4.128-.781.175-1.164a20.614,20.614,0,0,1-16.564,8.274c-16.1.622-39.951.606-45.037-.351a54.855,54.855,0,0,1-11.478-4.48c-.972,3.7,1.116,7.381,5.181,9.215,6.281,2.838,49.341,1.77,54.379,1.355a15.448,15.448,0,0,0,13.344-12.85Z" transform="translate(128.001 126.534)" fill="#c7d8f2"/>
      <path id="Path_396" data-name="Path 396" d="M171.287,331.16s-3.922,2.71-.239,9.087,6.871,2.471,15.225,8.848,11.3,7.62,15.735,7.126,7.126-2.694,7.86-5.149-1.483-6.648-1.483-6.648Z" transform="translate(100.708 196.783)" fill="#94a3c0"/>
      <path id="Path_397" data-name="Path 397" d="M206.272,332.9s1.706,8.354,2.694,14.731c.255,2.949-3.683,6.967-9.342,6.728s-8.832-1.977-10.809-4.432-14.236-7.206-16.452-9.167-2.71-7.86-1.722-9.342a7.413,7.413,0,0,1,8.593-2.2c3.938,1.706,7.126,4.91,14.986,5.4S206.272,332.9,206.272,332.9Z" transform="translate(101.115 195.297)" fill="#382747"/>
      <path id="Path_398" data-name="Path 398" d="M195.751,317.81s-3.938,2.694-.255,9.087,6.887,2.455,15.241,8.848,11.3,7.6,15.719,7.126,7.126-2.71,7.859-5.165-1.467-6.632-1.467-6.632Z" transform="translate(115.238 188.85)" fill="#94a3c0"/>
      <path id="Path_399" data-name="Path 399" d="M230.719,319.629s1.722,8.354,2.694,14.747c.255,2.949-3.683,6.951-9.326,6.712s-8.848-1.961-10.809-4.416-14.252-7.222-16.468-9.183-2.694-7.86-1.722-9.454a7.413,7.413,0,0,1,8.609-2.216c3.922,1.722,7.126,4.91,14.986,5.4S230.719,319.629,230.719,319.629Z" transform="translate(115.646 187.334)" fill="#382747"/>
      <path id="Path_400" data-name="Path 400" d="M198.453,283.63c1.961,15.735,9.82,57.009,11.16,71.421,0,0,3.284,5.245,13.1,3.922l4.671-1.945a4.511,4.511,0,0,0,2.758-4.783c-.988-7.971-3.188-27.979-2.184-39.856,1.307-15.065-2.615-24.232-2.615-24.232.319-4.91.972-21.953-8.848-26.544,0,0-24.073-4.416-18.015,21.952" transform="translate(117.368 155.292)" fill="#616d7f"/>
      <path id="Path_401" data-name="Path 401" d="M232.731,269.286l-2.6,5.229s-40.3,1.977-51.111,13.758c0,0-7.206,1.323-5.245,17.042s9.836,56.994,11.16,71.405c0,0,3.284,5.245,13.1,3.938l4.671-1.945a4.5,4.5,0,0,0,2.742-4.783c-.988-7.971-3.188-27.963-2.168-39.856,1.307-15.065-2.63-24.232-2.63-24.232A205.654,205.654,0,0,1,237.322,321c19,7.859,35.376-1.307,42.582-5.245a46.8,46.8,0,0,0,9.836-6.552A29.94,29.94,0,0,0,307.42,302c8.529-7.206,9.836-26.209.654-37.337S232.731,269.286,232.731,269.286Z" transform="translate(103.065 154.905)" fill="#6d7b93"/>
      <path id="Path_402" data-name="Path 402" d="M223.54,223.437s6.5-2.407,6.074-11.16c-1.977-8.561-4.368-9.135-4.368-9.135s9.119-8.418,20.1-5.771c0,0,6.775,13.774,14.46,19.673C259.809,217.092,253.671,233.274,223.54,223.437Z" transform="translate(132.837 116.977)" fill="#ea9273"/>
      <path id="Path_403" data-name="Path 403" d="M251.182,209.535s-25.508,8.513-32.761,20.31-5.9,24.9-.654,43.235-5.245,34.738-2.63,44.559,20.98,19,47.827,14.348,28.823-15.065,30.784-20.964-5.245-34.069,1.307-56.993-6.552-38.66-11.781-42.6S267.554,202.329,251.182,209.535Z" transform="translate(126.813 122.367)" fill="#58affb"/>
      <path id="Path_404" data-name="Path 404" d="M282.833,211.487c-5.245-3.922-15.735-9.167-32.108-1.961,0,0-25.508,8.513-32.761,20.31a32.92,32.92,0,0,0-3.794,8.864c10.347-13.455,25.029-19.354,34.595,3.587,8.912,21.41-13.79,84.334-33.606,64.55a24.584,24.584,0,0,0-.478,10.793c2.63,9.836,20.98,19,47.827,14.348s28.824-15.065,30.785-20.964-5.245-34.069,1.307-56.994S288.062,215.425,282.833,211.487Z" transform="translate(127.269 122.376)" fill="#2689fd" opacity="0.54"/>
      <path id="Path_405" data-name="Path 405" d="M221.79,222.144s6.871,4.416,24.073,1.961,18.19-14.747,16.707-15.719a32.56,32.56,0,0,1-4.416-4.926s-18.19,8.354-24.567,10.825-9.836,3.922-9.836,3.922Z" transform="translate(131.797 120.901)" fill="#fff"/>
      <g id="Group_319" data-name="Group 319" transform="translate(332.623 534.368)">
        <path id="Path_406" data-name="Path 406" d="M271.113,340.036l-8.322-4.846-31.151,5.149,8.306,4.83Z" transform="translate(-194.973 -335.19)" fill="#00265a"/>
        <path id="Path_407" data-name="Path 407" d="M242.133,343.251l-8.306-4.831-5.867,3.4,8.322,4.831Z" transform="translate(-197.16 -333.271)" fill="#002f71"/>
        <path id="Path_408" data-name="Path 408" d="M216.962,364.591l-8.322-4.831.016,3.523,8.306,4.831Z" transform="translate(-208.64 -320.59)" fill="#002a65"/>
        <path id="Path_409" data-name="Path 409" d="M247.762,345.381l-8.322-4.831-30.8,30.625,8.322,4.831Z" transform="translate(-208.64 -332.005)" fill="#00357f"/>
        <path id="Path_410" data-name="Path 410" d="M244.66,346.759l-30.8,30.625v3.523l30.816-26.464,5.867-3.38,31.135-9.31V338.23l-31.167,5.133Z" transform="translate(-205.538 -333.384)" fill="#001e46"/>
      </g>
      <g id="Group_320" data-name="Group 320" transform="translate(331.284 534.368)">
        <path id="Path_411" data-name="Path 411" d="M207.8,340.036l8.322-4.846,31.151,5.149-8.306,4.83Z" transform="translate(-207.8 -335.19)" fill="#00265a"/>
        <path id="Path_412" data-name="Path 412" d="M227.35,343.251l8.306-4.831,5.867,3.4-8.322,4.831Z" transform="translate(-196.183 -333.271)" fill="#002f71"/>
        <path id="Path_413" data-name="Path 413" d="M250.34,364.591l8.322-4.831v3.523l-8.322,4.831Z" transform="translate(-182.522 -320.59)" fill="#002a65"/>
        <path id="Path_414" data-name="Path 414" d="M231.02,345.381l8.322-4.831,30.8,30.625-8.322,4.831Z" transform="translate(-194.002 -332.005)" fill="#00357f"/>
        <path id="Path_415" data-name="Path 415" d="M244.818,346.759l30.8,30.625v3.523L244.8,354.443l-5.867-3.38-31.135-9.31V338.23l31.167,5.133Z" transform="translate(-207.8 -333.384)" fill="#001e46"/>
      </g>
      <g id="Group_321" data-name="Group 321" transform="translate(331.284 534.368)">
        <path id="Path_416" data-name="Path 416" d="M207.8,340.036l8.322-4.846,31.151,5.149-8.306,4.83Z" transform="translate(-207.8 -335.19)" fill="#00265a"/>
        <path id="Path_417" data-name="Path 417" d="M227.35,343.251l8.306-4.831,5.867,3.4-8.322,4.831Z" transform="translate(-196.183 -333.271)" fill="#002f71"/>
        <path id="Path_418" data-name="Path 418" d="M250.34,364.591l8.322-4.831v3.523l-8.322,4.831Z" transform="translate(-182.522 -320.59)" fill="#002a65"/>
        <path id="Path_419" data-name="Path 419" d="M231.02,345.381l8.322-4.831,30.8,30.625-8.322,4.831Z" transform="translate(-194.002 -332.005)" fill="#00357f"/>
        <path id="Path_420" data-name="Path 420" d="M244.818,346.759l30.8,30.625v3.523L244.8,354.443l-5.867-3.38-31.135-9.31V338.23l31.167,5.133Z" transform="translate(-207.8 -333.384)" fill="#001e46"/>
      </g>
      <g id="Group_322" data-name="Group 322" transform="translate(363.312 504.699)">
        <path id="Path_421" data-name="Path 421" d="M237.993,318.82l-.112,35.009L231.76,357.4l.1-35.025Z" transform="translate(-225.59 -315.249)" fill="#0046a6"/>
        <path id="Path_422" data-name="Path 422" d="M234.155,322.375l-.1,35.025-6.17-3.571L228,318.82Z" transform="translate(-227.89 -315.249)" fill="#003783"/>
        <path id="Path_423" data-name="Path 423" d="M240.252,320.151l-6.138,3.555-6.154-3.555,6.122-3.571Z" transform="translate(-227.848 -316.58)" fill="#4da5dc"/>
      </g>
      <path id="Path_424" data-name="Path 424" d="M348.888,236.092a8.449,8.449,0,0,0-11.239-7.684c-23.5,8.242-77.368,27.755-80.827,34.69-3.3,6.584-13.965,43.443-19.131,61.888a8.449,8.449,0,0,1-12.435,4.958L192.7,310.813a8.465,8.465,0,0,0-12.658,8.688l5.149,31.295a8.433,8.433,0,0,0,4.129,5.946l34.834,20.023a66.957,66.957,0,0,0,63.339,1.818l26.847-13.439a66.958,66.958,0,0,0,36.986-62.366Z" transform="translate(106.921 135.442)" fill="#ffbe3d"/>
      <path id="Path_425" data-name="Path 425" d="M210.066,239.2s25.715-18.015,30.657-18.079c5.915,0,13.089,2.6,14.348,11.16a15.432,15.432,0,0,1-8.322,16.548c-4.607,2.057-44.893,17.345-51.748,16.755s-10.745-6.839-5.707-13.806S210.066,239.2,210.066,239.2Z" transform="translate(111.127 131.395)" fill="#fff"/>
      <path id="Path_426" data-name="Path 426" d="M255.046,228.514a5.567,5.567,0,0,0-.223-1.164,20.629,20.629,0,0,1-12.865,13.312c-15,5.915-37.5,13.806-42.63,14.6a53.665,53.665,0,0,1-12.307-.43c.319,3.826,3.507,6.6,7.971,6.983,6.855.59,47.141-14.7,51.749-16.755A15.432,15.432,0,0,0,255.046,228.514Z" transform="translate(111.136 135.097)" fill="#c7d8f2"/>
      <path id="Path_427" data-name="Path 427" d="M166.264,244.562a40.353,40.353,0,0,1-8.689-2.551c-2.359-1.387-5.516-4.783-6.712-4.783s-4.783,1.2-5.516.8,0-1.77.59-1.977,4.783-.59,4.145-.781-4.942.988-5.325,0,4.336-6.377,9.262-7.509,5.723.8,8.1,1.786a63.659,63.659,0,0,1,8.083,5.325S169.8,242.984,166.264,244.562Z" transform="translate(86.01 135.134)" fill="#ff9f75"/>
      <path id="Path_428" data-name="Path 428" d="M220.429,253.083s-5.022,9.231-17.425,6.281-42.247-15.081-45.356-15.942a12.4,12.4,0,0,1,1.945-13.232s19.752,4.32,29.4,5.436S229.006,237.444,220.429,253.083Z" transform="translate(93.032 136.784)" fill="#fff"/>
      <path id="Path_429" data-name="Path 429" d="M156.65,236.48a12.754,12.754,0,0,0,.941,3.188c3.109.861,32.969,12.993,45.356,15.942,7.971,1.913,12.913-1.243,15.4-3.73C198.8,252.072,168.655,241.119,156.65,236.48Z" transform="translate(93.09 140.522)" fill="#c7d8f2"/>
      <path id="Path_430" data-name="Path 430" d="M221.157,176.745a15.719,15.719,0,0,0-6.042,10c-.8,6.377,3.412,9.725,1.594,13.678a17.218,17.218,0,0,0-1.594,11.829c1.052,3.683,2.63,12.626,4.99,15s11.845,0,19.131-2.1A27.325,27.325,0,0,0,255.8,211.468c2.63-5.787,6.377-16.054,4.209-24.726s-11.048-15.528-17.09-16.054a29.111,29.111,0,0,0-21.761,6.058Z" transform="translate(127.584 101.287)" fill="#ff9f75"/>
      <path id="Path_431" data-name="Path 431" d="M217.662,175.415s-5.787,4.783-2.9,11.574c1.849,2.1,7.11,4.783,8.944,8.418s-2.886,8.417.8,12.355,7.094,5.532,8.146,10.522,7.891,4.209,16.835,1.594c3.428-1.594,5.787-7.62,5.787-7.62s6.058-11.319,7.11-18.413-.8-10.267-2.9-10.267-11.048,7.11-18.142,4.783S221.871,174.363,217.662,175.415Z" transform="translate(127.141 104.196)" fill="#93513f"/>
      <path id="Path_432" data-name="Path 432" d="M216.289,180.291a14.731,14.731,0,0,1,7.094-10.793c6.839-4.464,22.893-1.594,27.1.526,3.188,2.1.255,2.63.255,2.63a27.644,27.644,0,0,1,8.689,6.058c3.188,3.683,4.209,12.626,2.1,17.09s-13.678,7.11-19.992,5.787S215.492,191.339,216.289,180.291Z" transform="translate(128.514 99.32)" fill="#a55d46"/>
      <path id="Path_433" data-name="Path 433" d="M221.3,194.916s1.132-4.384,3.667-1.977,1.132,8.322-.558,8.9S220.308,199.141,221.3,194.916Z" transform="translate(131.367 114.22)" fill="#ff9f75"/>
      <path id="Path_434" data-name="Path 434" d="M197.51,171.141a16.1,16.1,0,0,0-7.27,12.594v14.619c0,4.623,3.284,6.488,7.317,4.161l56.117-32.745,3.284,5.6,3.188-9.358,19.88-11.16a15.942,15.942,0,0,0,7.254-12.578V127.634c0-4.623-3.284-6.488-7.3-4.161Z" transform="translate(113.05 72.775)" fill="#ff5668"/>
      <path id="Path_435" data-name="Path 435" d="M123.06,214.5l61.952,36,43.57-25.157-61.952-36Z" transform="translate(73.13 112.51)" fill="#fff"/>
      <path id="Path_436" data-name="Path 436" d="M164.308,200.373l-9.709,5.675L142.26,202.4c3.444-3.938,11.765-5.5,18.573-3.491a15.384,15.384,0,0,1,3.475,1.467Z" transform="translate(84.539 117.674)" fill="#e2edff"/>
      <path id="Path_437" data-name="Path 437" d="M168.151,200c6.552,3.794,6.584,9.916,0,13.694a25.97,25.97,0,0,1-23.642,0c-5.229-3.013-6.377-7.429-3.188-11.239l14.922,4.4Z" transform="translate(82.928 118.845)" fill="#16c5dc"/>
      <path id="Path_438" data-name="Path 438" d="M227.733,217.29c1.212.7,1.212,1.833,0,2.519l-35.36,20.534a4.783,4.783,0,0,1-4.336,0L163.342,226.09a1.323,1.323,0,0,1,0-2.519l35.36-20.518a4.783,4.783,0,0,1,4.336,0Z" transform="translate(96.521 120.351)" fill="#f2f8fd"/>
      <path id="Path_439" data-name="Path 439" d="M228.688,212.65a.207.207,0,0,1,0,.1V213a.286.286,0,0,1,0,.112h0l-.128.143h0l-.1.08h0l-.112.08h-.128l-35.36,20.534a2.693,2.693,0,0,1-.43.207h-.112l-.287.08h-1.881l-.494-.08h0l-.43-.128h-.08l-.462-.223-25.364-13.726a1.69,1.69,0,0,1-.861-.925,1.211,1.211,0,0,1,0-.335V220.4a1.594,1.594,0,0,0,.893,1.1l24.679,14.252.446.207h.1a2.024,2.024,0,0,0,.287.1h.319a1.725,1.725,0,0,0,.3,0h1.754l.3-.08h.414l.43-.207,35.36-20.534h.367a.956.956,0,0,0,.128-.128h0a.4.4,0,0,0,0-.112h0v-.1h0v-.1h0v-.1h0v-1.323Z" transform="translate(96.538 126.362)" fill="#7baeff"/>
      <path id="Path_440" data-name="Path 440" d="M222.536,216.942a.415.415,0,0,1,0,.8l-33.558,19.513a1.594,1.594,0,0,1-1.4,0L165.351,224.5c-.4-.223-.4-.59,0-.813l33.542-19.625a1.594,1.594,0,0,1,1.4,0Z" transform="translate(98.083 121.161)" fill="#7cccff"/>
      <g id="Group_323" data-name="Group 323" transform="translate(153.018 237.779)">
        <path id="Path_441" data-name="Path 441" d="M123.783,175.045,95.98,158.88l.048,16.947,27.8,16.165Z" transform="translate(-95.98 -143.368)" fill="#ce7c56"/>
        <path id="Path_442" data-name="Path 442" d="M150.662,165.315,122.843,149.15,95.98,164.662l27.8,16.165Z" transform="translate(-95.98 -149.15)" fill="#ffbe3d"/>
        <path id="Path_443" data-name="Path 443" d="M113.42,174.8l.048,16.947,26.879-15.528L140.3,159.29Z" transform="translate(-85.617 -143.125)" fill="#e2a029"/>
      </g>
      <g id="Group_324" data-name="Group 324" transform="translate(120.018 239.644)">
        <path id="Path_444" data-name="Path 444" d="M103.1,176.215,75.28,160.05l.1,34.1,27.819,16.165Z" transform="translate(-75.28 -144.538)" fill="#2670d4"/>
        <path id="Path_445" data-name="Path 445" d="M129.962,166.485l-27.8-16.165L75.28,165.832,103.1,182Z" transform="translate(-75.28 -150.32)" fill="#58affb"/>
        <path id="Path_446" data-name="Path 446" d="M92.73,175.972l.1,34.1,26.863-15.528-.1-34.084Z" transform="translate(-64.911 -144.295)" fill="#2689fd"/>
      </g>
      <g id="Group_325" data-name="Group 325" transform="translate(87.129 238.879)">
        <path id="Path_447" data-name="Path 447" d="M82.453,175.735,54.65,159.57l.143,53.821,27.819,16.165Z" transform="translate(-54.65 -144.058)" fill="#cc096a"/>
        <path id="Path_448" data-name="Path 448" d="M109.332,165.99,81.513,149.84,54.65,165.352l27.8,16.165Z" transform="translate(-54.65 -149.84)" fill="#ff5668"/>
        <path id="Path_449" data-name="Path 449" d="M72.09,175.5l.159,53.821,26.879-15.512-.159-53.837Z" transform="translate(-44.287 -143.821)" fill="#ee2c6a"/>
      </g>
      <g id="Group_326" data-name="Group 326" transform="translate(91.832 318.562)">
        <path id="Path_450" data-name="Path 450" d="M160.7,215.512h0a2.662,2.662,0,0,1-.287.558.337.337,0,0,1,0,.1,3.574,3.574,0,0,1-.478.526,3.344,3.344,0,0,1-.43.319,3.649,3.649,0,0,1-.367.255l-55.559,32.3a7.171,7.171,0,0,1-1.18.526l-.462.128-.59.159-.733.128a3.848,3.848,0,0,0-.175-.829c-.335,0-.67-.781-1-.781h-.159c-.335,0-.654.813-.988.781,0,0-.1.415-.143.415a2.846,2.846,0,0,1-.972,0h-.159c-.048,0-.51-.048-.845-.048h-.143a5.922,5.922,0,0,1-.909-.43L59.37,228.92a2.965,2.965,0,0,1-1.77-2.455v6.377a3,3,0,0,0,1.77,2.471l35.743,20.725a7.154,7.154,0,0,0,.861.415h-.909c.048,0-.526.128-.526.175h2.487l.717.1h1.578s-.478-.112-.271-.112h1.945a1.1,1.1,0,0,0,.223,0l.59-.143.319-.08h.128a6.742,6.742,0,0,0,1.2-.51l55.463-32.251h0a1.975,1.975,0,0,0,.287-.223,3.014,3.014,0,0,0,.43-.319h0a2.848,2.848,0,0,0,.367-.4l.128-.191a.974.974,0,0,0,.112-.159,1.4,1.4,0,0,0,.159-.351c0-.08-.367-.143-.351-.223s-.383-.223-.383-.335h0l.446-6.377C160.38,215.1,160.762,215.305,160.7,215.512Z" transform="translate(-57.6 -190.775)" fill="#16c5dc"/>
        <path id="Path_451" data-name="Path 451" d="M159.022,221.468c2.359,1.355,2.359,3.555,0,4.91l-55.447,32.235a9.326,9.326,0,0,1-8.465,0L59.367,237.984c-2.344-1.355-2.359-3.555,0-4.91l55.479-32.235a9.326,9.326,0,0,1,8.465,0Z" transform="translate(-57.598 -199.823)" fill="#fff"/>
      </g>
      <path id="Path_452" data-name="Path 452" d="M94.338,211l-.032,6.919-3.858,3.348H87.02v-7.652Z" transform="translate(51.714 125.381)" fill="#ee2c6a"/>
      <path id="Path_453" data-name="Path 453" d="M94.032,214.9,94,224.657l-6.52,3.778.032-10.012Z" transform="translate(51.987 127.699)" fill="#bb4f23"/>
      <path id="Path_454" data-name="Path 454" d="M92.59,213.3c-.4-.159-.861-.319-1.291-.446l-1.068-.271-1.036-.175-1-.112H84.97a7.987,7.987,0,0,0-1.307.175,15.342,15.342,0,0,0-1.961.494,11.161,11.161,0,0,0-2.264.988H79.31A8.446,8.446,0,0,0,78,214.93a6.381,6.381,0,0,0-.638.686,3.839,3.839,0,0,0-.415.622,3.189,3.189,0,0,0-.271.574,4.133,4.133,0,0,0-.175.59,3.714,3.714,0,0,0,0,.59V228.37a3.747,3.747,0,0,1,0-.59,2.709,2.709,0,0,1,.159-.59,4.656,4.656,0,0,1,.271-.574,4.22,4.22,0,0,1,.414-.622,6.381,6.381,0,0,1,.638-.685,7.973,7.973,0,0,1,1.323-.972h.112a11.579,11.579,0,0,1,2.264-.988,16.049,16.049,0,0,1,1.961-.494c.43-.08.877-.128,1.323-.175a8.935,8.935,0,0,1,1.132,0h2.072l1,.112,1.036.175,1.068.271c.43.128.861.255,1.259.414a10.884,10.884,0,0,1,1.5.733V214.133a10.831,10.831,0,0,0-1.451-.829Z" transform="translate(45.458 126.154)" fill="#cc096a"/>
      <g id="Group_328" data-name="Group 328" transform="translate(139.483 346.122)">
        <path id="Path_455" data-name="Path 455" d="M90.551,221.128v4.528c0-1.594-1.02,2.646-3.061,1.467V217.11C89.547,218.29,90.567,219.581,90.551,221.128Z" transform="translate(-87.49 -217.11)" fill="#1e079d"/>
        <g id="Group_327" data-name="Group 327" clip-path="url(#clip-path)">
          <path id="Path_456" data-name="Path 456" d="M90.551,221.217v4.528c0-1.594-1.02,2.646-3.061,1.467V216.96a5.1,5.1,0,0,1,3.045,4.257" transform="translate(-87.49 -217.199)" fill="#2670d4"/>
        </g>
      </g>
      <path id="Path_458" data-name="Path 458" d="M97.331,219.64v4.544c0,2.886-1.9,5.755-5.691,7.971v-4.544C95.4,225.4,97.315,222.526,97.331,219.64Z" transform="translate(54.459 130.515)" fill="none"/>
      <path id="Path_459" data-name="Path 459" d="M97.331,219.815a8.537,8.537,0,0,1-.128,1.116,8.932,8.932,0,0,1-.319,1.116,8.629,8.629,0,0,1-.526,1.1,8.876,8.876,0,0,1-.781,1.18,11.431,11.431,0,0,1-1.212,1.291,13.969,13.969,0,0,1-2.487,1.833l-.239.159v4.528l.239-.143a14.78,14.78,0,0,0,2.487-1.833,11.544,11.544,0,0,0,1.212-1.307,8.741,8.741,0,0,0,.781-1.164,7.877,7.877,0,0,0,.526-1.116,9.564,9.564,0,0,0,.319-1.1,8.859,8.859,0,0,0,.128-1.116v-4.544Z" transform="translate(54.459 130.515)" fill="#2689fd"/>
      <path id="Path_460" data-name="Path 460" d="M94.032,214.9c7.652,4.416,7.684,11.16,0,15.528l-6.552-3.794c4.017-2.328,4-5.867,0-8.21Z" transform="translate(51.987 127.699)" fill="#58affb"/>
      <path id="Path_461" data-name="Path 461" d="M94.094,223.22l-.032,6.791-6.552-3.778.032-1.068Z" transform="translate(52.005 132.643)" fill="#88630a"/>
      <g id="Group_330" data-name="Group 330" transform="translate(132.325 355.863)">
        <g id="Group_329" data-name="Group 329" clip-path="url(#clip-path-2)">
          <path id="Path_462" data-name="Path 462" d="M92.406,225.133a29.268,29.268,0,0,1-3.619.893c-.829.143-1.594.271-2.5.351s-1.435.112-2.168.143H83v6.791h1.164l2.152-.143c.845-.08,1.594-.191,2.5-.351a29.269,29.269,0,0,0,3.619-.893,20.817,20.817,0,0,0,4.368-1.913V223.22a23.055,23.055,0,0,1-4.4,1.913Z" transform="translate(-83 -223.22)" fill="#e2a029"/>
        </g>
      </g>
      <path id="Path_464" data-name="Path 464" d="M83,227.4l-.032,6.791-.032-5.341.032-7.094Z" transform="translate(49.289 131.775)" fill="#113c7a"/>
      <path id="Path_465" data-name="Path 465" d="M96.774,224.6A28.043,28.043,0,0,1,83,227.915v-5.261a14.841,14.841,0,0,0,7.286-1.754Z" transform="translate(49.325 131.264)" fill="#ffbe3d"/>
      <g id="Group_332" data-name="Group 332" transform="translate(112.636 344.018)">
        <g id="Group_331" data-name="Group 331" clip-path="url(#clip-path-3)">
          <path id="Path_466" data-name="Path 466" d="M89.434,227.173a11.008,11.008,0,0,1-1.913-.112c-.638-.112-1.275-.112-1.9-.207s-1.307-.207-1.929-.335-1.387-.319-2.057-.494-1.594-.51-2.359-.8a20.292,20.292,0,0,1-2.838-1.371c-3.858-2.216-5.787-5.149-5.771-8.067v10.267c0,2.917,1.913,6.138,5.771,8.37a21.129,21.129,0,0,0,2.838,1.355,22.776,22.776,0,0,0,2.359.8c.67.191,1.355.367,2.057.51s1.275.239,1.929.335,1.259.159,1.9.207,1.275.1,1.929.112h.877v-10.57Z" transform="translate(-70.638 -215.79)" fill="#cc096a"/>
        </g>
      </g>
      <path id="Path_468" data-name="Path 468" d="M104.055,212.226l-6.5,3.794a16.2,16.2,0,0,0-14.651,0c-4.017,2.344-4,6.122,0,8.465a15,15,0,0,0,7.317,1.754v5.341a28.266,28.266,0,0,1-13.774-3.412c-7.668-4.416-7.7-11.59-.1-15.942S96.386,207.81,104.055,212.226Z" transform="translate(41.997 124.156)" fill="#ff5668"/>
      <path id="Path_469" data-name="Path 469" d="M125.293,221.561c.558.319.558.813,0,1.132a2.1,2.1,0,0,1-1.945,0l-27.66-15.942a.59.59,0,0,1,0-1.132,2.1,2.1,0,0,1,1.945,0Z" transform="translate(56.613 122.042)" fill="#d4d9df"/>
      <path id="Path_470" data-name="Path 470" d="M107.376,213.54a.606.606,0,0,1,0,1.132,2.232,2.232,0,0,1-1.961,0L93.682,207.9c-.542-.3-.542-.813,0-1.132a2.2,2.2,0,0,1,1.945,0Z" transform="translate(55.431 122.73)" fill="#d4d9df"/>
      <path id="Path_471" data-name="Path 471" d="M112.128,218.46c.542.319.558.813,0,1.132a2.152,2.152,0,0,1-1.945,0l-18.365-10.6a.59.59,0,0,1,0-1.132,2.1,2.1,0,0,1,1.945,0Z" transform="translate(54.313 123.373)" fill="#d4d9df"/>
      <g id="Group_335" data-name="Group 335" transform="translate(270.799 263.461)">
        <g id="Group_334" data-name="Group 334" clip-path="url(#clip-path-4)">
          <g id="Group_333" data-name="Group 333" transform="translate(-0.064 -0.048)">
            <path id="Path_472" data-name="Path 472" d="M170.107,166.458v1.722a2.932,2.932,0,0,1-.287-1.228V165.23a2.822,2.822,0,0,0,.287,1.228" transform="translate(-169.82 -165.23)" fill="#003783"/>
          </g>
        </g>
      </g>
      <path id="Path_474" data-name="Path 474" d="M153.833,165.364v.414a1.2,1.2,0,0,1,0,.255q0,.088,0,.175a2.272,2.272,0,0,1-.127.287l-.175.3V168.5l.128-.207h0l.128-.287V167.9a2.251,2.251,0,0,0,0-.255.462.462,0,0,0,0-.143v-2.168C153.849,165.221,153.833,165.285,153.833,165.364Z" transform="translate(91.236 98.209)" fill="#0046a6"/>
      <path id="Path_475" data-name="Path 475" d="M182.321,166.422a1.244,1.244,0,0,1,0,.255.708.708,0,0,1,0,.159,1.485,1.485,0,0,1,0,.207v.159a.97.97,0,0,1,0,.191l-.1.143a.606.606,0,0,1-.143.207l-.1.128a2.454,2.454,0,0,1-.271.3h0l-.159.128-.191.159-.175.112-.255.175-.638.3-.223.1-.478.175h-.143a3.582,3.582,0,0,1-.558.143h-.207l-.446.08H175.1l-.67-.08v1.706h4.416l.542-.143h.159l.4-.159.239-.08.638-.319h0l.175-.128.191-.128.191-.143.143-.128h0l.271-.287h0l.143-.207h0v-.08l.1-.191v-2.535S182.321,166.374,182.321,166.422Z" transform="translate(103.655 98.889)" fill="#2689fd"/>
      <path id="Path_476" data-name="Path 476" d="M152.54,169.584l-.574.1h-2.71a5.538,5.538,0,0,1-.717-.1h-.207l-.765-.175h0l-.781-.271h-.1l-.686-.319a3.045,3.045,0,0,1-1.754-2.6v1.722A3.045,3.045,0,0,0,146,170.524a5.451,5.451,0,0,0,.686.335h0l.717.239h0l.59.144h3.842l.574-.08h.223l.51-.1v-1.722Z" transform="translate(85.721 98.772)" fill="#2689fd"/>
      <path id="Path_477" data-name="Path 477" d="M187.237,173.17v1.722l-12.977,7.525.016-1.706Z" transform="translate(103.554 102.902)" fill="#2689fd"/>
      <path id="Path_478" data-name="Path 478" d="M154.847,180.918v1.706l-13.407-7.732.016-1.722Z" transform="translate(84.051 102.902)" fill="#2689fd"/>
      <path id="Path_479" data-name="Path 479" d="M185.006,180.284v.159a1.933,1.933,0,0,1-.08.287v.175l-.1.175c0,.1-.08.191-.128.3l-.271.4v.08l-.351.415h0a2.792,2.792,0,0,1-.383.367h0c-.143.128-.3.239-.478.367h-.08c-.191.128-.383.255-.59.367l-.574.319-.191.08-.415.191-.223.1-.414.143h-.223l-.319.1a2.676,2.676,0,0,1-.51.143l-.287.08-.526.112H178.6c-.319,0-.622.112-.941.143H173.48l-.239-.08-.43-.143-.319-.128h-.159l-.478-.239a3.045,3.045,0,0,1-1.754-2.6v1.722a3.045,3.045,0,0,0,1.754,2.583c.159.08.319.175.478.239h.159l.191.1h.128a1.82,1.82,0,0,0,.414.144h.255l.319.08h3.858l.941-.128h.271l.51-.112h.3l.51-.143h.3l.239-.08.4-.159.239-.1.415-.175.191-.1.574-.3h.128l.446-.3h.1a3.783,3.783,0,0,0,.478-.367h0l.143-.128.239-.223h0c.1-.112.207-.223.287-.335v-.08h0l.255-.4h0a1.768,1.768,0,0,0,.143-.3.752.752,0,0,0,0-.159h0a.606.606,0,0,0,0-.159,1.938,1.938,0,0,0,.08-.287h0v-.159a1.4,1.4,0,0,1,0-.255V180.22Q184.927,180.249,185.006,180.284Z" transform="translate(101.082 107.091)" fill="#2689fd"/>
      <path id="Path_480" data-name="Path 480" d="M161.825,176.288l-.67-.351-.223-.112-.478-.207h0l-.43-.159h-.112l-.606-.191h0a8.434,8.434,0,0,0-.861-.207h-4.958l-.4.1h-.494l-.414.159-.207.08-.574.287h-.08l-.175.128-.175.112-.191.159-.159.128h0l-.526.351h0v.1l-.143.191v.08h0l-.1.191v.3a.223.223,0,0,1,0,.1h0v1.961a1.246,1.246,0,0,1,0-.255.709.709,0,0,1,0-.159,1.5,1.5,0,0,1,0-.207,1.112,1.112,0,0,1,0-.159.975.975,0,0,1,.08-.191l.1-.143.128-.207.112-.128.255-.287v-.08l.143-.128.207-.159.175-.112.255-.159a3.194,3.194,0,0,1,.574-.287l.191-.08.43-.159.335-.112h.223l.223.1h.383l.59-.08h3.316l.526.1h.271l.861.207.622.191h.128l.494.191.462.207.239.1c.223.112.446.223.654.351a4.623,4.623,0,0,1,2.774,3.635v-1.706a4.607,4.607,0,0,0-2.774-3.459Z" transform="translate(89.046 104.025)" fill="#2689fd"/>
      <path id="Path_481" data-name="Path 481" d="M174.967,180.31l-.016,1.706-12.961,7.541v-1.722Z" transform="translate(96.263 107.145)" fill="#2689fd"/>
      <path id="Path_482" data-name="Path 482" d="M199.155,165.616c3.188,1.881,3.7,4.639,1.036,6.2a10.378,10.378,0,0,1-6.5.845l13.041,7.525-12.961,7.541a10.362,10.362,0,0,1,6.52.845c2.694,1.594,2.264,4.32-.957,6.186s-7.971,2.136-10.7.59a2.806,2.806,0,0,1-1.467-3.794L174.205,199.1l-13.392-7.732a10.537,10.537,0,0,0,7.031-.749c2.678-1.594,2.216-4.32-1.02-6.186s-7.971-2.136-10.7-.59a2.806,2.806,0,0,0-1.275,4.1l-13.391-7.748,13.487-7.844a10.873,10.873,0,0,1-7.333-.686c-2.678-1.594-2.248-4.336.972-6.2s7.971-2.12,10.681-.574a2.79,2.79,0,0,1,1.228,4.241L174,161.28l12.961,7.525a2.774,2.774,0,0,1,1.435-3.762C191.136,163.544,195.919,163.8,199.155,165.616Z" transform="translate(84.063 95.836)" fill="#58affb"/>
      <path id="Path_483" data-name="Path 483" d="M166.987,187.912v1.722l-13.407-7.748.016-1.706Z" transform="translate(91.265 107.067)" fill="#2689fd"/>
    </g>
  </g>
</svg>
