<svg id="LOGO" xmlns="http://www.w3.org/2000/svg" xmlns:xlink="http://www.w3.org/1999/xlink" width="244.236" height="68.374" viewBox="0 0 244.236 68.374">
  <defs>
    <clipPath id="clip-path">
      <path id="Path_74" data-name="Path 74" d="M43.658,5.5C27.091,5.5,13.61,19.193,13.61,36.033S27.091,66.572,43.658,66.572s30.048-13.7,30.048-30.539S60.226,5.5,43.658,5.5ZM65.2,53.032h0a23.217,23.217,0,0,0-7.474-4.474A57.655,57.655,0,0,0,59.5,37.387h11.37A28.062,28.062,0,0,1,65.2,53.032ZM21.854,19.379h0A20.739,20.739,0,0,0,28.9,22.93a44.9,44.9,0,0,0-1.739,11.749H16.451a28.072,28.072,0,0,1,5.4-15.3ZM42.019,9.317h0l-.5-1.016c.226-.02.458-.04.69-.053V22.227a50.334,50.334,0,0,1-9.724-1.142C35.919,12.3,41.674,9.476,42.019,9.317Zm3.1,15.645h0a46.1,46.1,0,0,0,10-1.1,42.027,42.027,0,0,1,1.593,10.819h-11.6Zm0-2.708h0V9.562c1.46.85,6.166,4.089,9.127,11.722a43.692,43.692,0,0,1-9.127.969Zm0-13.853h0V8.248a.272.272,0,0,1,.073.007l-.073.146ZM42.2,24.941h0v9.737H29.965a42.285,42.285,0,0,1,1.626-11.012A53.8,53.8,0,0,0,42.2,24.941ZM27.184,37.387h0a57.348,57.348,0,0,0,1.8,11.31,31.989,31.989,0,0,0-7.328,3.717,28.111,28.111,0,0,1-5.2-15.027Zm2.821,0H42.2v8.828a44.3,44.3,0,0,0-10.514,1.613A56.565,56.565,0,0,1,30,37.387ZM42.2,48.923h0V63.2c-5.011-2.336-7.978-7.527-9.731-12.764A41.273,41.273,0,0,1,42.2,48.923ZM45.119,62.9h0V48.91a36.033,36.033,0,0,1,9.14,1.361C52.592,55.335,49.8,60.4,45.119,62.9Zm0-16.694h0V37.387H56.675a56.928,56.928,0,0,1-1.639,10.262A38.923,38.923,0,0,0,45.119,46.2Zm14.4-11.523h0a44.966,44.966,0,0,0-1.693-11.6A15.825,15.825,0,0,0,64.945,18.7a28.034,28.034,0,0,1,5.921,15.983ZM63.1,16.571h0c-.485.7-2.084,2.536-6.126,3.936a26.905,26.905,0,0,0-8.3-11.822A27.012,27.012,0,0,1,63.1,16.571ZM37.777,8.865h0a27.085,27.085,0,0,0-8.012,11.49,17.847,17.847,0,0,1-6.18-3.113A27.143,27.143,0,0,1,37.777,8.865ZM23.361,54.572h0a28.741,28.741,0,0,1,6.419-3.252c1.447,4.3,3.69,8.629,7.155,11.682a27.191,27.191,0,0,1-13.574-8.43Zm26.125,8.642h0C53.13,60.121,55.46,55.64,56.94,51.2a20.323,20.323,0,0,1,6.492,3.949A27.048,27.048,0,0,1,49.486,63.214Z" transform="translate(-13.61 -5.5)" clip-rule="evenodd"/>
    </clipPath>
    <clipPath id="clip-path-2">
      <path id="Path_107" data-name="Path 107" d="M77.323,80.59v-7.54l-.312.305a4.722,4.722,0,0,1-2.94,1.487,4,4,0,0,1-2.894-1.155c-.119-.106-.246-.226-.365-.345a4.038,4.038,0,0,1-3.379,1.673,4.877,4.877,0,0,1-3.113-2.1v7.68a10.5,10.5,0,0,0,2.124,5.164A8.392,8.392,0,0,0,70.8,88.462a8.63,8.63,0,0,0,4.354-2.735,10.573,10.573,0,0,0,2.17-5.137Z" transform="translate(-64.32 -72.91)" clip-rule="evenodd"/>
    </clipPath>
  </defs>
  <rect id="Rectangle_45" data-name="Rectangle 45" width="244.236" height="68.374" fill="none"/>
  <g id="_105553208025024" transform="translate(9.034 3.651)">
    <path id="Path_49" data-name="Path 49" d="M43.658,5.5C27.091,5.5,13.61,19.193,13.61,36.033S27.091,66.572,43.658,66.572s30.048-13.7,30.048-30.539S60.226,5.5,43.658,5.5ZM65.2,53.032h0a23.217,23.217,0,0,0-7.474-4.474A57.655,57.655,0,0,0,59.5,37.387h11.37A28.062,28.062,0,0,1,65.2,53.032ZM21.854,19.379h0A20.739,20.739,0,0,0,28.9,22.93a44.9,44.9,0,0,0-1.739,11.749H16.451a28.072,28.072,0,0,1,5.4-15.3ZM42.019,9.317h0l-.5-1.016c.226-.02.458-.04.69-.053V22.227a50.334,50.334,0,0,1-9.724-1.142C35.919,12.3,41.674,9.476,42.019,9.317Zm3.1,15.645h0a46.1,46.1,0,0,0,10-1.1,42.027,42.027,0,0,1,1.593,10.819h-11.6Zm0-2.708h0V9.562c1.46.85,6.166,4.089,9.127,11.722a43.692,43.692,0,0,1-9.127.969Zm0-13.853h0V8.248a.272.272,0,0,1,.073.007l-.073.146ZM42.2,24.941h0v9.737H29.965a42.285,42.285,0,0,1,1.626-11.012A53.8,53.8,0,0,0,42.2,24.941ZM27.184,37.387h0a57.348,57.348,0,0,0,1.8,11.31,31.989,31.989,0,0,0-7.328,3.717,28.111,28.111,0,0,1-5.2-15.027Zm2.821,0H42.2v8.828a44.3,44.3,0,0,0-10.514,1.613A56.565,56.565,0,0,1,30,37.387ZM42.2,48.923h0V63.2c-5.011-2.336-7.978-7.527-9.731-12.764A41.273,41.273,0,0,1,42.2,48.923ZM45.119,62.9h0V48.91a36.033,36.033,0,0,1,9.14,1.361C52.592,55.335,49.8,60.4,45.119,62.9Zm0-16.694h0V37.387H56.675a56.928,56.928,0,0,1-1.639,10.262A38.923,38.923,0,0,0,45.119,46.2Zm14.4-11.523h0a44.966,44.966,0,0,0-1.693-11.6A15.825,15.825,0,0,0,64.945,18.7a28.034,28.034,0,0,1,5.921,15.983ZM63.1,16.571h0c-.485.7-2.084,2.536-6.126,3.936a26.905,26.905,0,0,0-8.3-11.822A27.012,27.012,0,0,1,63.1,16.571ZM37.777,8.865h0a27.085,27.085,0,0,0-8.012,11.49,17.847,17.847,0,0,1-6.18-3.113A27.143,27.143,0,0,1,37.777,8.865ZM23.361,54.572h0a28.741,28.741,0,0,1,6.419-3.252c1.447,4.3,3.69,8.629,7.155,11.682a27.191,27.191,0,0,1-13.574-8.43Zm26.125,8.642h0C53.13,60.121,55.46,55.64,56.94,51.2a20.323,20.323,0,0,1,6.492,3.949A27.048,27.048,0,0,1,49.486,63.214Z" transform="translate(-13.61 -5.5)" fill="#fff"/>
    <path id="Path_570" data-name="Path 570" d="M43.658,5.5C27.091,5.5,13.61,19.193,13.61,36.033S27.091,66.572,43.658,66.572s30.048-13.7,30.048-30.539S60.226,5.5,43.658,5.5ZM65.2,53.032h0a23.217,23.217,0,0,0-7.474-4.474A57.655,57.655,0,0,0,59.5,37.387h11.37A28.062,28.062,0,0,1,65.2,53.032ZM21.854,19.379h0A20.739,20.739,0,0,0,28.9,22.93a44.9,44.9,0,0,0-1.739,11.749H16.451a28.072,28.072,0,0,1,5.4-15.3ZM42.019,9.317h0l-.5-1.016c.226-.02.458-.04.69-.053V22.227a50.334,50.334,0,0,1-9.724-1.142C35.919,12.3,41.674,9.476,42.019,9.317Zm3.1,15.645h0a46.1,46.1,0,0,0,10-1.1,42.027,42.027,0,0,1,1.593,10.819h-11.6Zm0-2.708h0V9.562c1.46.85,6.166,4.089,9.127,11.722a43.692,43.692,0,0,1-9.127.969Zm0-13.853h0V8.248a.272.272,0,0,1,.073.007l-.073.146ZM42.2,24.941h0v9.737H29.965a42.285,42.285,0,0,1,1.626-11.012A53.8,53.8,0,0,0,42.2,24.941ZM27.184,37.387h0a57.348,57.348,0,0,0,1.8,11.31,31.989,31.989,0,0,0-7.328,3.717,28.111,28.111,0,0,1-5.2-15.027Zm2.821,0H42.2v8.828a44.3,44.3,0,0,0-10.514,1.613A56.565,56.565,0,0,1,30,37.387ZM42.2,48.923h0V63.2c-5.011-2.336-7.978-7.527-9.731-12.764A41.273,41.273,0,0,1,42.2,48.923ZM45.119,62.9h0V48.91a36.033,36.033,0,0,1,9.14,1.361C52.592,55.335,49.8,60.4,45.119,62.9Zm0-16.694h0V37.387H56.675a56.928,56.928,0,0,1-1.639,10.262A38.923,38.923,0,0,0,45.119,46.2Zm14.4-11.523h0a44.966,44.966,0,0,0-1.693-11.6A15.825,15.825,0,0,0,64.945,18.7a28.034,28.034,0,0,1,5.921,15.983ZM63.1,16.571h0c-.485.7-2.084,2.536-6.126,3.936a26.905,26.905,0,0,0-8.3-11.822A27.012,27.012,0,0,1,63.1,16.571ZM37.777,8.865h0a27.085,27.085,0,0,0-8.012,11.49,17.847,17.847,0,0,1-6.18-3.113A27.143,27.143,0,0,1,37.777,8.865ZM23.361,54.572h0a28.741,28.741,0,0,1,6.419-3.252c1.447,4.3,3.69,8.629,7.155,11.682a27.191,27.191,0,0,1-13.574-8.43Zm26.125,8.642h0C53.13,60.121,55.46,55.64,56.94,51.2a20.323,20.323,0,0,1,6.492,3.949A27.048,27.048,0,0,1,49.486,63.214Z" transform="translate(-13.61 -5.5)" fill="#fff"/>
    <g id="Group_99" data-name="Group 99" clip-path="url(#clip-path)">
      <g id="Group_98" data-name="Group 98" transform="translate(-3.1 -2.615)">
        <g id="Group_97" data-name="Group 97">
          <path id="_1" d="M9.537,8.549,16.52,1.56l7.587,7.587-7.587,7.58L8.94,9.147ZM16.52,3.943l-5.2,5.2,5.2,5.2,5.2-5.2-5.2-5.2Z" transform="translate(-8.94 -1.56)" fill="#e6e7e8"/>
          <path id="Path_50" data-name="Path 50" d="M28.8,8.549,35.78,1.56l7.587,7.587-7.587,7.58L28.2,9.147l.6-.6ZM35.78,3.943l-5.2,5.2,5.2,5.2,5.2-5.2-5.2-5.2Z" transform="translate(-15.416 -1.56)" fill="#e6e7e8"/>
          <path id="Path_51" data-name="Path 51" d="M48.057,8.549,55.04,1.56l7.58,7.587-7.58,7.58-7.58-7.58.6-.6ZM55.04,3.943l-5.2,5.2,5.2,5.2,5.2-5.2-5.2-5.2Z" transform="translate(-21.892 -1.56)" fill="#e6e7e8"/>
          <path id="Path_52" data-name="Path 52" d="M67.317,8.549,74.3,1.56l7.58,7.587-7.58,7.58-7.58-7.58ZM74.3,3.943l-5.2,5.2,5.2,5.2,5.2-5.2-5.2-5.2Z" transform="translate(-28.368 -1.56)" fill="#e6e7e8"/>
          <path id="Path_53" data-name="Path 53" d="M86.571,8.549,93.56,1.56l7.58,7.587-7.58,7.58-7.58-7.58ZM93.56,3.943l-5.2,5.2,5.2,5.2,5.2-5.2-5.2-5.2Z" transform="translate(-34.844 -1.56)" fill="#e6e7e8"/>
          <path id="Path_54" data-name="Path 54" d="M9.537,27.809,16.52,20.82l7.587,7.58L16.52,35.987,8.94,28.4l.6-.591ZM16.52,23.2l-5.2,5.2,5.2,5.2,5.2-5.2Z" transform="translate(-8.94 -8.036)" fill="#e6e7e8"/>
          <path id="Path_55" data-name="Path 55" d="M28.8,27.809,35.78,20.82l7.587,7.58L35.78,35.987,28.2,28.4l.6-.591ZM35.78,23.2l-5.2,5.2,5.2,5.2,5.2-5.2Z" transform="translate(-15.416 -8.036)" fill="#e6e7e8"/>
          <path id="Path_56" data-name="Path 56" d="M48.057,27.809,55.04,20.82l7.58,7.58-7.58,7.587L47.46,28.4l.6-.591ZM55.04,23.2l-5.2,5.2,5.2,5.2,5.2-5.2Z" transform="translate(-21.892 -8.036)" fill="#e6e7e8"/>
          <path id="Path_57" data-name="Path 57" d="M67.317,27.809,74.3,20.82l7.58,7.58L74.3,35.987,66.72,28.4l.6-.591ZM74.3,23.2l-5.2,5.2,5.2,5.2,5.2-5.2Z" transform="translate(-28.368 -8.036)" fill="#e6e7e8"/>
          <path id="Path_58" data-name="Path 58" d="M86.571,27.809,93.56,20.82l7.58,7.58-7.58,7.587L85.98,28.4l.591-.591ZM93.56,23.2l-5.2,5.2,5.2,5.2,5.2-5.2-5.2-5.2Z" transform="translate(-34.844 -8.036)" fill="#e6e7e8"/>
          <path id="Path_59" data-name="Path 59" d="M9.537,47.069,16.52,40.08l7.587,7.58L16.52,55.247,8.94,47.66Zm6.983-4.606-5.2,5.2,5.2,5.2,5.2-5.2-5.2-5.2Z" transform="translate(-8.94 -14.512)" fill="#e6e7e8"/>
          <path id="Path_60" data-name="Path 60" d="M28.8,47.069,35.78,40.08l7.587,7.58L35.78,55.247,28.2,47.66l.6-.591Zm6.983-4.606-5.2,5.2,5.2,5.2,5.2-5.2-5.2-5.2Z" transform="translate(-15.416 -14.512)" fill="#e6e7e8"/>
          <path id="Path_61" data-name="Path 61" d="M48.057,47.069,55.04,40.08l7.58,7.58-7.58,7.587L47.46,47.66l.6-.591Zm6.983-4.606-5.2,5.2,5.2,5.2,5.2-5.2-5.2-5.2Z" transform="translate(-21.892 -14.512)" fill="#e6e7e8"/>
          <path id="Path_62" data-name="Path 62" d="M67.317,47.069,74.3,40.08l7.58,7.58L74.3,55.247,66.72,47.66ZM74.3,42.463l-5.2,5.2,5.2,5.2,5.2-5.2-5.2-5.2Z" transform="translate(-28.368 -14.512)" fill="#e6e7e8"/>
          <path id="Path_63" data-name="Path 63" d="M86.571,47.069,93.56,40.08l7.58,7.58-7.58,7.587L85.98,47.66Zm6.989-4.606-5.2,5.2,5.2,5.2,5.2-5.2-5.2-5.2Z" transform="translate(-34.844 -14.512)" fill="#e6e7e8"/>
          <path id="Path_64" data-name="Path 64" d="M9.537,66.329,16.52,59.34l7.587,7.58L16.52,74.5,8.94,66.92Zm6.983-4.606-5.2,5.2,5.2,5.2,5.2-5.2Z" transform="translate(-8.94 -20.988)" fill="#e6e7e8"/>
          <path id="Path_65" data-name="Path 65" d="M28.8,66.329,35.78,59.34l7.587,7.58L35.78,74.5,28.2,66.92l.6-.591Zm6.983-4.606-5.2,5.2,5.2,5.2,5.2-5.2Z" transform="translate(-15.416 -20.988)" fill="#e6e7e8"/>
          <path id="Path_66" data-name="Path 66" d="M48.057,66.329,55.04,59.34l7.58,7.58L55.04,74.5l-7.58-7.58.6-.591Zm6.983-4.606-5.2,5.2,5.2,5.2,5.2-5.2Z" transform="translate(-21.892 -20.988)" fill="#e6e7e8"/>
          <path id="Path_67" data-name="Path 67" d="M67.317,66.329,74.3,59.34l7.58,7.58L74.3,74.5l-7.58-7.58ZM74.3,61.723l-5.2,5.2,5.2,5.2,5.2-5.2Z" transform="translate(-28.368 -20.988)" fill="#e6e7e8"/>
          <path id="Path_68" data-name="Path 68" d="M86.571,66.329,93.56,59.34l7.58,7.58L93.56,74.5l-7.58-7.58Zm6.989-4.606-5.2,5.2,5.2,5.2,5.2-5.2-5.2-5.2Z" transform="translate(-34.844 -20.988)" fill="#e6e7e8"/>
          <path id="Path_69" data-name="Path 69" d="M9.537,85.583,16.52,78.6l7.587,7.58L16.52,93.76,8.94,86.18Zm6.983-4.606-5.2,5.2,5.2,5.2,5.2-5.2Z" transform="translate(-8.94 -27.464)" fill="#e6e7e8"/>
          <path id="Path_70" data-name="Path 70" d="M28.8,85.583,35.78,78.6l7.587,7.58L35.78,93.76,28.2,86.18l.6-.6Zm6.983-4.606-5.2,5.2,5.2,5.2,5.2-5.2Z" transform="translate(-15.416 -27.464)" fill="#e6e7e8"/>
          <path id="Path_71" data-name="Path 71" d="M48.057,85.583,55.04,78.6l7.58,7.58-7.58,7.58-7.58-7.58.6-.6Zm6.983-4.606-5.2,5.2,5.2,5.2,5.2-5.2Z" transform="translate(-21.892 -27.464)" fill="#e6e7e8"/>
          <path id="Path_72" data-name="Path 72" d="M67.317,85.583,74.3,78.6l7.58,7.58L74.3,93.76l-7.58-7.58ZM74.3,80.976l-5.2,5.2,5.2,5.2,5.2-5.2Z" transform="translate(-28.368 -27.464)" fill="#e6e7e8"/>
          <path id="Path_73" data-name="Path 73" d="M86.571,85.583,93.56,78.6l7.58,7.58-7.58,7.58-7.58-7.58Zm6.989-4.606-5.2,5.2,5.2,5.2,5.2-5.2-5.2-5.2Z" transform="translate(-34.844 -27.464)" fill="#e6e7e8"/>
        </g>
      </g>
    </g>
    <path id="Path_75" data-name="Path 75" d="M43.658,5.5C27.091,5.5,13.61,19.193,13.61,36.033S27.091,66.572,43.658,66.572s30.048-13.7,30.048-30.539S60.226,5.5,43.658,5.5ZM65.2,53.032h0a23.217,23.217,0,0,0-7.474-4.474A57.655,57.655,0,0,0,59.5,37.387h11.37A28.062,28.062,0,0,1,65.2,53.032ZM21.854,19.379h0A20.739,20.739,0,0,0,28.9,22.93a44.9,44.9,0,0,0-1.739,11.749H16.451a28.072,28.072,0,0,1,5.4-15.3ZM42.019,9.317h0l-.5-1.016c.226-.02.458-.04.69-.053V22.227a50.334,50.334,0,0,1-9.724-1.142C35.919,12.3,41.674,9.476,42.019,9.317Zm3.1,15.645h0a46.1,46.1,0,0,0,10-1.1,42.027,42.027,0,0,1,1.593,10.819h-11.6Zm0-2.708h0V9.562c1.46.85,6.166,4.089,9.127,11.722a43.692,43.692,0,0,1-9.127.969Zm0-13.853h0V8.248a.272.272,0,0,1,.073.007l-.073.146ZM42.2,24.941h0v9.737H29.965a42.285,42.285,0,0,1,1.626-11.012A53.8,53.8,0,0,0,42.2,24.941ZM27.184,37.387h0a57.348,57.348,0,0,0,1.8,11.31,31.989,31.989,0,0,0-7.328,3.717,28.111,28.111,0,0,1-5.2-15.027Zm2.821,0H42.2v8.828a44.3,44.3,0,0,0-10.514,1.613A56.565,56.565,0,0,1,30,37.387ZM42.2,48.923h0V63.2c-5.011-2.336-7.978-7.527-9.731-12.764A41.273,41.273,0,0,1,42.2,48.923ZM45.119,62.9h0V48.91a36.033,36.033,0,0,1,9.14,1.361C52.592,55.335,49.8,60.4,45.119,62.9Zm0-16.694h0V37.387H56.675a56.928,56.928,0,0,1-1.639,10.262A38.923,38.923,0,0,0,45.119,46.2Zm14.4-11.523h0a44.966,44.966,0,0,0-1.693-11.6A15.825,15.825,0,0,0,64.945,18.7a28.034,28.034,0,0,1,5.921,15.983ZM63.1,16.571h0c-.485.7-2.084,2.536-6.126,3.936a26.905,26.905,0,0,0-8.3-11.822A27.012,27.012,0,0,1,63.1,16.571ZM37.777,8.865h0a27.085,27.085,0,0,0-8.012,11.49,17.847,17.847,0,0,1-6.18-3.113A27.143,27.143,0,0,1,37.777,8.865ZM23.361,54.572h0a28.741,28.741,0,0,1,6.419-3.252c1.447,4.3,3.69,8.629,7.155,11.682a27.191,27.191,0,0,1-13.574-8.43Zm26.125,8.642h0C53.13,60.121,55.46,55.64,56.94,51.2a20.323,20.323,0,0,1,6.492,3.949A27.048,27.048,0,0,1,49.486,63.214Z" transform="translate(-13.61 -5.5)" fill="none"/>
    <g id="Group_100" data-name="Group 100" transform="translate(63.688 4.235)">
      <path id="Path_76" data-name="Path 76" d="M109.56,42.665l12.811-30.347h10.3L145,42.665H134.312l-1.52-4.288h-11.37l-1.566,4.288H109.56ZM124.017,31.2h6.319l-3.12-8.881Zm20.338-3.664a15.373,15.373,0,0,1,2.111-7.985A14.728,14.728,0,0,1,152.339,14a17.776,17.776,0,0,1,8.463-1.991,17.465,17.465,0,0,1,6.989,1.513,16.959,16.959,0,0,1,5.828,4.029l-5.795,6.956a10.793,10.793,0,0,0-3.246-3.02,7.132,7.132,0,0,0-3.644-1.122,5.784,5.784,0,0,0-4.507,1.991,7.325,7.325,0,0,0-1.772,5.045,7.456,7.456,0,0,0,1.772,5.118,5.774,5.774,0,0,0,4.507,2,7.869,7.869,0,0,0,3.518-.956A11.644,11.644,0,0,0,167.825,31l5.795,6.186a18.829,18.829,0,0,1-6.113,4.308,17.285,17.285,0,0,1-15.346-.4,14.576,14.576,0,0,1-5.748-5.562,15.69,15.69,0,0,1-2.058-8Zm29.471,10.613,3.737-7.527a21.867,21.867,0,0,0,5.768,3.332,16.143,16.143,0,0,0,5.781,1.4c1.62,0,2.429-.531,2.429-1.573a1.507,1.507,0,0,0-.677-1.221,4.939,4.939,0,0,0-1.772-.816c-.73-.2-1.573-.425-2.516-.684s-1.912-.5-2.887-.763a14.253,14.253,0,0,1-2.881-1.1,13.258,13.258,0,0,1-2.522-1.62,6.64,6.64,0,0,1-1.772-2.423,8.154,8.154,0,0,1-.677-3.425,8.544,8.544,0,0,1,3.518-7.188q3.515-2.658,9.459-2.662a26.744,26.744,0,0,1,7.082.969,22.534,22.534,0,0,1,6.133,2.615l-3.637,7.613a36.188,36.188,0,0,0-5.549-2.5A15.568,15.568,0,0,0,187.95,19.5c-1.241,0-1.865.431-1.865,1.281a1.368,1.368,0,0,0,.544,1.062,4.587,4.587,0,0,0,1.44.783c.611.212,1.308.418,2.084.631s1.613.425,2.476.677,1.739.524,2.615.836a12.467,12.467,0,0,1,2.482,1.215,11.085,11.085,0,0,1,2.078,1.686,6.87,6.87,0,0,1,1.447,2.39,8.963,8.963,0,0,1,.544,3.213,9.211,9.211,0,0,1-.677,3.578,7.937,7.937,0,0,1-1.852,2.741,10.521,10.521,0,0,1-2.788,1.892,14.376,14.376,0,0,1-3.485,1.122,21.057,21.057,0,0,1-3.969.365,26.834,26.834,0,0,1-8.118-1.288,22.923,22.923,0,0,1-7.082-3.538Z" transform="translate(-109.56 -11.88)" fill="#fff"/>
      <path id="Path_77" data-name="Path 77" d="M263.76,27.579a14.837,14.837,0,0,1,8.31-13.514,19.219,19.219,0,0,1,8.795-1.985,21.132,21.132,0,0,1,7.115,1.268,18.338,18.338,0,0,1,5.994,3.405l-5.669,6.9a11.8,11.8,0,0,0-3.558-2.33,9.825,9.825,0,0,0-3.916-.883,6.387,6.387,0,0,0-4.839,2.024,7.142,7.142,0,0,0-1.932,5.118,7.21,7.21,0,0,0,1.951,5.191,6.461,6.461,0,0,0,4.9,2.038,10.913,10.913,0,0,0,3.976-.989V26.8H293.5V39.274a22.961,22.961,0,0,1-6.292,2.794,25.12,25.12,0,0,1-6.989,1.1,17.789,17.789,0,0,1-8.47-2,14.87,14.87,0,0,1-5.881-5.576,15.474,15.474,0,0,1-2.111-8Zm33.46,15.154V12.385h14.244q5.914,0,9.166,2.828c2.177,1.892,3.259,4.56,3.259,8.025q0,5.516-3.259,8.569t-9.18,3.047h-4.188v7.879Zm10.043-15.5h3.69a3.262,3.262,0,0,0,2.522-.962,3.855,3.855,0,0,0,.889-2.715,3.622,3.622,0,0,0-.9-2.622,3.306,3.306,0,0,0-2.509-.929h-3.69Z" transform="translate(-161.409 -11.947)" fill="#11a2dd"/>
    </g>
    <path id="Path_78" data-name="Path 78" d="M183.038,78.15H96.955a34.209,34.209,0,0,1-10.985,11.1h97.068Z" transform="translate(-37.941 -29.928)" fill="#13a3dd" fill-rule="evenodd"/>
    <path id="Path_79" data-name="Path 79" d="M103.42,71H253.31V59.9H107.33A33.808,33.808,0,0,1,103.42,71Z" transform="translate(-43.808 -23.792)" fill="#155baa" fill-rule="evenodd"/>
    <path id="Path_80" data-name="Path 80" d="M113.23,69.959l2.907-6.492h.77l2.9,6.492H119l-.723-1.646h-3.544l-.723,1.646h-.783Zm1.825-2.356h2.914L116.5,64.311Zm5.668,2.356V65.074h.7v1.1a2.113,2.113,0,0,1,3.007-.8,1.606,1.606,0,0,1,.611.943,1.869,1.869,0,0,1,1.938-1.274,1.761,1.761,0,0,1,1.334.5,1.925,1.925,0,0,1,.478,1.387v3.02h-.717V67.138a1.387,1.387,0,0,0-.365-1.016,1.323,1.323,0,0,0-1-.365,1.543,1.543,0,0,0-1.175.511,1.929,1.929,0,0,0-.425,1.288v2.4h-.723V67.138a1.374,1.374,0,0,0-.358-1.016,1.323,1.323,0,0,0-1-.365,1.543,1.543,0,0,0-1.175.511,1.881,1.881,0,0,0-.438,1.288v2.4h-.7Zm9.87-.664a2.674,2.674,0,0,1-.007-3.564,2.366,2.366,0,0,1,1.746-.677h.013a2.057,2.057,0,0,1,1.726.73,2.766,2.766,0,0,1,.538,1.786c0,.073,0,.153-.007.226h-3.969a1.772,1.772,0,0,0,.577,1.135,1.722,1.722,0,0,0,1.195.425,1.99,1.99,0,0,0,1.507-.611l.4.425a2.365,2.365,0,0,1-.85.6,2.9,2.9,0,0,1-1.115.212,2.355,2.355,0,0,1-1.752-.69Zm.04-2.131h3.332a1.5,1.5,0,0,0-.471-1.082,1.651,1.651,0,0,0-1.155-.4,1.669,1.669,0,0,0-1.155.4,1.63,1.63,0,0,0-.551,1.075Zm5.217,2.794V65.074h.723v1.069a1.788,1.788,0,0,1,.69-.816,1.964,1.964,0,0,1,1.062-.279v.71h-.046a1.644,1.644,0,0,0-1.181.425,1.746,1.746,0,0,0-.524,1.168v2.609Zm3.458-5.934a.541.541,0,0,1,0-.71.467.467,0,0,1,.339-.146.442.442,0,0,1,.332.146.522.522,0,0,1,0,.71.42.42,0,0,1-.332.146A.443.443,0,0,1,139.309,64.025Zm-.007,5.934V65.074h.7v4.885Zm1.971-2.449a2.37,2.37,0,0,1,.684-1.766,2.345,2.345,0,0,1,1.746-.69h.04a2.465,2.465,0,0,1,1.839.71l-.4.511a2.019,2.019,0,0,0-1.454-.564,1.675,1.675,0,0,0-1.248.5,2,2,0,0,0,0,2.609,1.661,1.661,0,0,0,1.248.511,1.871,1.871,0,0,0,1.513-.637l.418.451a2.284,2.284,0,0,1-.83.624,2.8,2.8,0,0,1-1.128.219,2.361,2.361,0,0,1-1.746-.69A2.417,2.417,0,0,1,141.274,67.51Zm5.463,2.058a1.4,1.4,0,0,1-.458-1.069,1.284,1.284,0,0,1,.485-1.042,2.057,2.057,0,0,1,1.341-.4h1.6V66.78a1.01,1.01,0,0,0-.332-.816,1.464,1.464,0,0,0-.976-.292,2.771,2.771,0,0,0-1.547.544l-.305-.518a4.264,4.264,0,0,1,.962-.491,2.889,2.889,0,0,1,1.029-.159,1.98,1.98,0,0,1,1.387.445,1.612,1.612,0,0,1,.5,1.235l.007,3.233h-.7v-.75a2.069,2.069,0,0,1-1.786.783,1.683,1.683,0,0,1-1.2-.425Zm.219-1.1a.791.791,0,0,0,.3.65,1.3,1.3,0,0,0,.823.239,1.825,1.825,0,0,0,1.055-.292,1.37,1.37,0,0,0,.584-.8v-.577H148.19C147.367,67.689,146.956,67.948,146.956,68.473Zm5.084,1.487V65.074h.723v1.069a1.9,1.9,0,0,1,1.885-1.1,1.809,1.809,0,0,1,1.367.5,1.9,1.9,0,0,1,.491,1.387v3.02h-.723V67.132a1.265,1.265,0,0,0-1.381-1.374,1.579,1.579,0,0,0-1.142.431,1.733,1.733,0,0,0-.5,1.142v2.628Zm8.1-3.239a3.222,3.222,0,0,1,1.666-2.834,3.418,3.418,0,0,1,1.706-.438,3.354,3.354,0,0,1,1.288.259,3.531,3.531,0,0,1,1.089.7l-.445.571a2.864,2.864,0,0,0-.883-.6,2.723,2.723,0,0,0-2.37.126,2.52,2.52,0,0,0-.956.929,2.533,2.533,0,0,0,0,2.575,2.521,2.521,0,0,0,.956.929,2.718,2.718,0,0,0,1.334.345,2.788,2.788,0,0,0,1.029-.206,3.017,3.017,0,0,0,.889-.577l.451.511a3.648,3.648,0,0,1-1.115.717,3.274,3.274,0,0,1-1.294.266,3.534,3.534,0,0,1-1.314-.252,3.281,3.281,0,0,1-1.062-.7A3.191,3.191,0,0,1,160.4,68,3.226,3.226,0,0,1,160.144,66.72Zm7.029,2.575a2.443,2.443,0,0,1-.684-1.786,2.4,2.4,0,0,1,.684-1.779,2.351,2.351,0,0,1,1.739-.677h.013a2.057,2.057,0,0,1,1.726.73,2.766,2.766,0,0,1,.538,1.786V67.8h-3.976a1.749,1.749,0,0,0,.584,1.135,1.716,1.716,0,0,0,1.188.425,2.015,2.015,0,0,0,1.513-.611l.4.425a2.334,2.334,0,0,1-.856.6,2.868,2.868,0,0,1-1.108.212,2.37,2.37,0,0,1-1.759-.69Zm.04-2.131h3.339a1.536,1.536,0,0,0-.478-1.082,1.651,1.651,0,0,0-1.155-.4,1.669,1.669,0,0,0-1.155.4,1.63,1.63,0,0,0-.551,1.075Zm5.217,2.794V65.074h.723v1.069a1.829,1.829,0,0,1,.69-.816,1.964,1.964,0,0,1,1.062-.279v.71h-.046a1.655,1.655,0,0,0-1.181.425,1.746,1.746,0,0,0-.524,1.168v2.609Zm2.934-4.148V65.18h.69V63.893h.717V65.18l1.54-.013v.644h-1.54v2.655a.954.954,0,0,0,.166.617.6.6,0,0,0,.491.2,1.506,1.506,0,0,0,.777-.252l.206.584a1.99,1.99,0,0,1-1.108.378,1.221,1.221,0,0,1-.909-.345,1.448,1.448,0,0,1-.339-1.042V65.811h-.69Zm4.142-1.786a.522.522,0,0,1,0-.71.458.458,0,0,1,.67,0,.475.475,0,0,1,.133.352.481.481,0,0,1-.133.358.458.458,0,0,1-.67,0Zm-.007,5.934V65.074h.7v4.885Zm1.985-4.135v-.631h.624v-.544a1.825,1.825,0,0,1,.133-.723,1.474,1.474,0,0,1,.345-.524,1.71,1.71,0,0,1,.5-.305,1.514,1.514,0,0,1,.577-.106,1.617,1.617,0,0,1,.876.246l-.013.677a1.936,1.936,0,0,0-.85-.212.816.816,0,0,0-.611.219.846.846,0,0,0-.239.644v.631h1.387v.631h-1.387v4.135h-.723V65.824ZM184.976,64a.541.541,0,0,1,0-.71.443.443,0,0,1,.339-.146.42.42,0,0,1,.332.146.522.522,0,0,1,0,.71.42.42,0,0,1-.332.146A.443.443,0,0,1,184.976,64Zm-.013,5.961V65.074h.723v4.885Zm1.985-2.449a2.37,2.37,0,0,1,.684-1.766,2.32,2.32,0,0,1,1.739-.69h.046a2.45,2.45,0,0,1,1.832.71l-.392.511a2.03,2.03,0,0,0-1.454-.564,1.665,1.665,0,0,0-1.248.5,1.977,1.977,0,0,0,0,2.609,1.651,1.651,0,0,0,1.248.511,1.849,1.849,0,0,0,1.507-.637l.418.451a2.23,2.23,0,0,1-.83.624,2.782,2.782,0,0,1-1.128.219,2.371,2.371,0,0,1-1.746-.69A2.438,2.438,0,0,1,186.947,67.51Zm5.456,2.058a1.4,1.4,0,0,1-.458-1.069,1.3,1.3,0,0,1,.485-1.042,2.069,2.069,0,0,1,1.341-.4h1.606V66.78a1.014,1.014,0,0,0-.339-.816,1.433,1.433,0,0,0-.969-.292,2.773,2.773,0,0,0-1.553.544l-.3-.518a4.373,4.373,0,0,1,.956-.491,2.927,2.927,0,0,1,1.035-.159,1.963,1.963,0,0,1,1.381.445,1.612,1.612,0,0,1,.5,1.235l.013,3.232h-.7v-.75a2.082,2.082,0,0,1-1.792.783,1.694,1.694,0,0,1-1.2-.425Zm.219-1.1a.779.779,0,0,0,.305.65,1.272,1.272,0,0,0,.816.239,1.832,1.832,0,0,0,1.062-.292,1.388,1.388,0,0,0,.577-.8v-.577h-1.52c-.83,0-1.241.259-1.241.783Zm4.573-2.662V65.18h.69V63.893h.723V65.18l1.533-.013v.644h-1.533v2.655a.916.916,0,0,0,.166.617.58.58,0,0,0,.485.2,1.47,1.47,0,0,0,.777-.252l.206.584a1.99,1.99,0,0,1-1.108.378,1.221,1.221,0,0,1-.909-.345,1.448,1.448,0,0,1-.339-1.042V65.811h-.69Zm4.142-1.786a.522.522,0,0,1,0-.71.467.467,0,0,1,.339-.146.452.452,0,0,1,.332.146.522.522,0,0,1,0,.71.429.429,0,0,1-.332.146A.443.443,0,0,1,201.337,64.025Zm-.007,5.934V65.074h.7v4.885ZM203.3,67.5a2.375,2.375,0,0,1,.69-1.766,2.665,2.665,0,0,1,3.564,0,2.375,2.375,0,0,1,.69,1.766,2.474,2.474,0,1,1-4.945,0Zm.723.007a1.793,1.793,0,0,0,.491,1.314,1.82,1.82,0,0,0,2.516,0,1.793,1.793,0,0,0,.491-1.314,1.757,1.757,0,0,0-.491-1.294,1.82,1.82,0,0,0-2.516,0A1.757,1.757,0,0,0,204.025,67.51Zm5.489,2.449V65.074h.723v1.069a1.912,1.912,0,0,1,1.892-1.1,1.8,1.8,0,0,1,1.361.5,1.875,1.875,0,0,1,.491,1.387v3.02h-.723V67.132a1.264,1.264,0,0,0-1.374-1.374,1.6,1.6,0,0,0-1.148.431,1.765,1.765,0,0,0-.5,1.142v2.628Zm8.038-.943.332-.67a3.232,3.232,0,0,0,1.022.677,2.848,2.848,0,0,0,1.135.246A2.024,2.024,0,0,0,221.157,69a.846.846,0,0,0,.4-.743.922.922,0,0,0-.451-.823,2.533,2.533,0,0,0-.485-.239q-.279-.11-.577-.2c-.2-.06-.4-.126-.6-.186a3.385,3.385,0,0,1-.577-.232,2.6,2.6,0,0,1-.485-.332,1.379,1.379,0,0,1-.339-.485,1.75,1.75,0,0,1-.126-.67,1.415,1.415,0,0,1,.624-1.2,2.677,2.677,0,0,1,1.62-.451,4.163,4.163,0,0,1,1.1.153,3.712,3.712,0,0,1,.956.418l-.312.7a3.12,3.12,0,0,0-.889-.418,3.217,3.217,0,0,0-.9-.139,1.836,1.836,0,0,0-1,.239.713.713,0,0,0-.378.644.914.914,0,0,0,.126.478,1.031,1.031,0,0,0,.339.339,2.354,2.354,0,0,0,.485.239q.279.11.577.2c.2.06.4.126.6.192a3.117,3.117,0,0,1,.577.239,2.338,2.338,0,0,1,.485.339,1.366,1.366,0,0,1,.332.485,1.81,1.81,0,0,1,.119.677,1.5,1.5,0,0,1-.65,1.281,2.738,2.738,0,0,1-1.693.485,3.541,3.541,0,0,1-1.354-.266,3.656,3.656,0,0,1-1.128-.7Zm6.432.279a2.684,2.684,0,0,1,0-3.564,2.351,2.351,0,0,1,1.739-.677h.013a2.07,2.07,0,0,1,1.732.73,2.766,2.766,0,0,1,.538,1.786c0,.073-.007.153-.007.226h-3.976a1.779,1.779,0,0,0,.584,1.135,1.716,1.716,0,0,0,1.188.425,2.015,2.015,0,0,0,1.513-.611l.4.425a2.334,2.334,0,0,1-.856.6,2.844,2.844,0,0,1-1.108.212,2.37,2.37,0,0,1-1.759-.69Zm.04-2.131h3.339a1.536,1.536,0,0,0-.478-1.082,1.651,1.651,0,0,0-1.155-.4,1.681,1.681,0,0,0-1.155.4,1.659,1.659,0,0,0-.551,1.075Zm5.217,2.794V65.074h.723v1.069a1.829,1.829,0,0,1,.69-.816,1.964,1.964,0,0,1,1.062-.279v.71h-.046a1.655,1.655,0,0,0-1.181.425,1.777,1.777,0,0,0-.524,1.168v2.609Zm2.861-4.885h.77l1.553,4.135,1.547-4.135h.737l-1.918,4.885h-.75L232.1,65.074Zm5.476-1.049a.522.522,0,0,1,0-.71.442.442,0,0,1,.332-.146.467.467,0,0,1,.339.146.541.541,0,0,1,0,.71.443.443,0,0,1-.339.146A.42.42,0,0,1,237.578,64.025Zm-.013,5.934V65.074h.7v4.885Zm1.971-2.449a2.4,2.4,0,0,1,.684-1.766,2.345,2.345,0,0,1,1.746-.69h.04a2.465,2.465,0,0,1,1.839.71l-.4.511a2.019,2.019,0,0,0-1.454-.564,1.675,1.675,0,0,0-1.248.5,2,2,0,0,0,0,2.609,1.661,1.661,0,0,0,1.248.511,1.871,1.871,0,0,0,1.513-.637l.418.451a2.23,2.23,0,0,1-.83.624,2.805,2.805,0,0,1-1.128.219,2.361,2.361,0,0,1-1.746-.69,2.417,2.417,0,0,1-.684-1.786Zm5.649,1.786a2.674,2.674,0,0,1-.007-3.564,2.366,2.366,0,0,1,1.746-.677h.013a2.057,2.057,0,0,1,1.726.73,2.766,2.766,0,0,1,.538,1.786c0,.073,0,.153-.007.226h-3.969a1.773,1.773,0,0,0,.577,1.135,1.722,1.722,0,0,0,1.195.425,1.99,1.99,0,0,0,1.507-.611l.4.425a2.365,2.365,0,0,1-.85.6,2.9,2.9,0,0,1-1.115.212,2.355,2.355,0,0,1-1.752-.69Zm.04-2.131h3.332a1.5,1.5,0,0,0-.471-1.082,1.651,1.651,0,0,0-1.155-.4,1.669,1.669,0,0,0-1.155.4,1.63,1.63,0,0,0-.551,1.075Zm4.567,2.117.285-.544a2.148,2.148,0,0,0,.743.451,2.377,2.377,0,0,0,.87.166,1.475,1.475,0,0,0,.75-.173.587.587,0,0,0,.3-.538.561.561,0,0,0-.106-.345.735.735,0,0,0-.305-.239,3.593,3.593,0,0,0-.438-.166c-.159-.053-.325-.1-.491-.153a4.069,4.069,0,0,1-.5-.192,2.3,2.3,0,0,1-.438-.252,1.025,1.025,0,0,1-.305-.378,1.3,1.3,0,0,1-.113-.551,1.241,1.241,0,0,1,.139-.6,1.032,1.032,0,0,1,.372-.418,1.783,1.783,0,0,1,.538-.232,2.485,2.485,0,0,1,.644-.073,2.716,2.716,0,0,1,1.566.445l-.279.577a2.48,2.48,0,0,0-1.334-.4,1.361,1.361,0,0,0-.7.166.576.576,0,0,0-.146.836.816.816,0,0,0,.305.226,2.866,2.866,0,0,0,.445.159l.5.159a3.788,3.788,0,0,1,.5.186,2.533,2.533,0,0,1,.445.259.978.978,0,0,1,.312.378,1.186,1.186,0,0,1,.119.538,1.247,1.247,0,0,1-.259.8,1.437,1.437,0,0,1-.65.465,2.526,2.526,0,0,1-.889.146,3,3,0,0,1-1.029-.186,2.259,2.259,0,0,1-.843-.518Z" transform="translate(-47.106 -24.831)" fill="#fff"/>
    <path id="Path_81" data-name="Path 81" d="M114.181,85.244a3.227,3.227,0,0,1,0-3.292,3.268,3.268,0,0,1,1.241-1.181,3.643,3.643,0,0,1,4.122.471l-.431.551a2.953,2.953,0,0,0-.909-.551,2.91,2.91,0,0,0-1.055-.192,2.763,2.763,0,0,0-1.347.339,2.609,2.609,0,0,0-.976.923,2.486,2.486,0,0,0-.352,1.288,2.454,2.454,0,0,0,.358,1.294,2.575,2.575,0,0,0,.976.929,2.763,2.763,0,0,0,1.347.339,2.992,2.992,0,0,0,1.713-.544V83.677h.657v2.336a3.916,3.916,0,0,1-1.135.631,3.789,3.789,0,0,1-1.281.232,3.4,3.4,0,0,1-1.706-.438,3.247,3.247,0,0,1-1.221-1.195Zm7.082,1.593V79.96h.723v6.877Zm2.038-2.449a2.355,2.355,0,0,1,.7-1.766,2.656,2.656,0,0,1,3.558,0,2.355,2.355,0,0,1,.7,1.766,2.477,2.477,0,1,1-4.952,0Zm.723.007a1.794,1.794,0,0,0,.491,1.308,1.829,1.829,0,0,0,2.522,0,1.794,1.794,0,0,0,.491-1.308,1.773,1.773,0,0,0-.491-1.294,1.829,1.829,0,0,0-2.522,0A1.773,1.773,0,0,0,124.025,84.394Zm5.542,2.443V79.973h.723V83.02a1.9,1.9,0,0,1,.757-.81,2.372,2.372,0,0,1,2.808.412,2.509,2.509,0,0,1,.65,1.792,2.451,2.451,0,0,1-.644,1.766,2.4,2.4,0,0,1-2.808.412,1.921,1.921,0,0,1-.763-.8v1.042Zm.723-2.443a1.788,1.788,0,0,0,.491,1.308,1.665,1.665,0,0,0,1.261.5,1.637,1.637,0,0,0,1.248-.511,1.96,1.96,0,0,0,0-2.6,1.642,1.642,0,0,0-1.248-.518,1.67,1.67,0,0,0-1.261.511,1.783,1.783,0,0,0-.491,1.3Zm5.536,2.058a1.406,1.406,0,0,1-.458-1.069,1.275,1.275,0,0,1,.485-1.042,2.1,2.1,0,0,1,1.341-.4h1.6v-.272a1.01,1.01,0,0,0-.332-.816,1.464,1.464,0,0,0-.976-.292,2.81,2.81,0,0,0-1.547.538l-.305-.511a4.781,4.781,0,0,1,.962-.5,3.045,3.045,0,0,1,1.029-.159,1.982,1.982,0,0,1,1.387.451,1.6,1.6,0,0,1,.5,1.235l.007,3.233h-.7v-.757a2.073,2.073,0,0,1-1.786.79,1.683,1.683,0,0,1-1.2-.425Zm.219-1.1a.779.779,0,0,0,.3.644,1.267,1.267,0,0,0,.823.246,1.876,1.876,0,0,0,1.055-.292,1.37,1.37,0,0,0,.584-.8v-.584h-1.52C136.457,84.566,136.046,84.832,136.046,85.356Zm5.131,1.48V79.96h.723v6.877Zm5.171,0V80.352h2.443a2.8,2.8,0,0,1,1.865.571,2.008,2.008,0,0,1,.67,1.606,2.14,2.14,0,0,1-.664,1.673,2.74,2.74,0,0,1-1.872.591h-1.706v2.044h-.737Zm.737-2.761h1.673a2.1,2.1,0,0,0,1.361-.385,1.4,1.4,0,0,0,.485-1.142,1.332,1.332,0,0,0-.478-1.108,2.163,2.163,0,0,0-1.367-.378h-1.673Zm5.363,2.761V81.951h.717V83.02a1.86,1.86,0,0,1,.7-.81,1.985,1.985,0,0,1,1.055-.285v.717h-.046a1.628,1.628,0,0,0-1.175.425,1.737,1.737,0,0,0-.531,1.168v2.6Zm2.947-2.449a2.355,2.355,0,0,1,.7-1.766,2.665,2.665,0,0,1,3.564,0,2.375,2.375,0,0,1,.69,1.766,2.477,2.477,0,1,1-4.952,0Zm.723.007a1.794,1.794,0,0,0,.491,1.308,1.829,1.829,0,0,0,2.522,0,1.794,1.794,0,0,0,.491-1.308,1.773,1.773,0,0,0-.491-1.294,1.829,1.829,0,0,0-2.522,0A1.773,1.773,0,0,0,156.118,84.394Zm5-.139a2.37,2.37,0,0,1,.611-1.673,2.135,2.135,0,0,1,1.593-.657,2.177,2.177,0,0,1,1.082.266,1.924,1.924,0,0,1,.737.757v-1h.723v4.374a2.239,2.239,0,0,1-.67,1.7,2.506,2.506,0,0,1-1.786.631,3.362,3.362,0,0,1-2-.69l.332-.564a2.568,2.568,0,0,0,1.646.624,1.765,1.765,0,0,0,1.274-.458,1.6,1.6,0,0,0,.485-1.228v-.75a1.844,1.844,0,0,1-.723.77,2.3,2.3,0,0,1-2.682-.392,2.422,2.422,0,0,1-.617-1.712Zm.677.027a1.771,1.771,0,0,0,.471,1.235,1.74,1.74,0,0,0,2.4-.007,1.687,1.687,0,0,0,.471-1.228,1.719,1.719,0,0,0-.471-1.241,1.732,1.732,0,0,0-2.4,0A1.776,1.776,0,0,0,161.8,84.281Zm5.7,2.555V81.951h.723V83.02a1.89,1.89,0,0,1,.69-.81,2.026,2.026,0,0,1,1.062-.285v.717h-.046a1.628,1.628,0,0,0-1.175.425,1.737,1.737,0,0,0-.531,1.168v2.6H167.5Zm3.259-.385a1.406,1.406,0,0,1-.458-1.069,1.275,1.275,0,0,1,.485-1.042,2.1,2.1,0,0,1,1.341-.4h1.6v-.272a1.01,1.01,0,0,0-.332-.816,1.464,1.464,0,0,0-.976-.292,2.81,2.81,0,0,0-1.547.538l-.305-.511a4.781,4.781,0,0,1,.962-.5,3.045,3.045,0,0,1,1.029-.159,1.971,1.971,0,0,1,1.387.451,1.6,1.6,0,0,1,.5,1.235l.007,3.232h-.7v-.757a2.073,2.073,0,0,1-1.786.79A1.683,1.683,0,0,1,170.76,86.452Zm.219-1.1a.779.779,0,0,0,.3.644,1.267,1.267,0,0,0,.823.246,1.914,1.914,0,0,0,1.062-.292,1.388,1.388,0,0,0,.577-.8v-.584h-1.52c-.83,0-1.241.266-1.241.79Zm5.084,1.48V81.951h.7v1.1a2.1,2.1,0,0,1,3.007-.79,1.637,1.637,0,0,1,.611.943,1.868,1.868,0,0,1,1.932-1.281,1.766,1.766,0,0,1,1.334.5,1.927,1.927,0,0,1,.485,1.394v3.013h-.723V84.022a1.374,1.374,0,0,0-.358-1.016,1.323,1.323,0,0,0-1-.365,1.52,1.52,0,0,0-1.175.511,1.884,1.884,0,0,0-.425,1.288v2.4h-.723V84.022A1.4,1.4,0,0,0,179.376,83a1.351,1.351,0,0,0-1-.358,1.564,1.564,0,0,0-1.175.511,1.911,1.911,0,0,0-.431,1.288v2.4Z" transform="translate(-47.275 -30.537)" fill="#fff"/>
    <path id="Path_82" data-name="Path 82" d="M77.323,80.59v-7.54l-.312.305a4.722,4.722,0,0,1-2.94,1.487,4,4,0,0,1-2.894-1.155c-.119-.106-.246-.226-.365-.345a4.038,4.038,0,0,1-3.379,1.673,4.877,4.877,0,0,1-3.113-2.1v7.68a10.5,10.5,0,0,0,2.124,5.164A8.392,8.392,0,0,0,70.8,88.462a8.63,8.63,0,0,0,4.354-2.735,10.573,10.573,0,0,0,2.17-5.137Z" transform="translate(-30.661 -28.166)" fill="#0987b9" fill-rule="evenodd"/>
    <g id="Group_103" data-name="Group 103" transform="translate(33.659 44.744)" clip-path="url(#clip-path-2)">
      <g id="Group_102" data-name="Group 102" transform="translate(-1.726 -0.451)">
        <g id="Group_101" data-name="Group 101">
          <path id="_1_0" d="M61.866,73.962,63.6,72.23l1.885,1.878L63.6,75.993,61.72,74.108l.146-.146ZM63.6,72.821l-1.288,1.288L63.6,75.4l1.294-1.294Z" transform="translate(-61.72 -72.23)" fill="#314c7d"/>
          <path id="Path_83" data-name="Path 83" d="M66.646,73.962l1.732-1.732,1.885,1.878-1.885,1.885L66.5,74.108Zm1.732-1.142-1.288,1.288L68.378,75.4l1.294-1.294Z" transform="translate(-63.327 -72.23)" fill="#314c7d"/>
          <path id="Path_84" data-name="Path 84" d="M71.426,73.962l1.732-1.732,1.885,1.878-1.885,1.885L71.28,74.108Zm1.732-1.142-1.288,1.288L73.158,75.4l1.294-1.294Z" transform="translate(-64.934 -72.23)" fill="#314c7d"/>
          <path id="Path_85" data-name="Path 85" d="M76.206,73.962l1.732-1.732,1.885,1.878-1.885,1.885L76.06,74.108Zm1.732-1.142-1.288,1.288L77.938,75.4l1.294-1.294Z" transform="translate(-66.542 -72.23)" fill="#314c7d"/>
          <path id="Path_86" data-name="Path 86" d="M80.986,73.962l1.732-1.732L84.6,74.108l-1.885,1.885L80.84,74.108Zm1.732-1.142-1.288,1.288L82.718,75.4l1.294-1.294Z" transform="translate(-68.149 -72.23)" fill="#314c7d"/>
          <path id="Path_87" data-name="Path 87" d="M61.866,78.742,63.6,77.01l1.885,1.878L63.6,80.774,61.72,78.888l.146-.146ZM63.6,77.6l-1.288,1.288L63.6,80.183l1.294-1.294Z" transform="translate(-61.72 -73.837)" fill="#314c7d"/>
          <path id="Path_88" data-name="Path 88" d="M66.646,78.742l1.732-1.732,1.885,1.878-1.885,1.885L66.5,78.888ZM68.378,77.6l-1.288,1.288,1.288,1.294,1.294-1.294Z" transform="translate(-63.327 -73.837)" fill="#314c7d"/>
          <path id="Path_89" data-name="Path 89" d="M71.426,78.742l1.732-1.732,1.885,1.878-1.885,1.885L71.28,78.888ZM73.158,77.6l-1.288,1.288,1.288,1.294,1.294-1.294Z" transform="translate(-64.934 -73.837)" fill="#314c7d"/>
          <path id="Path_90" data-name="Path 90" d="M76.206,78.742l1.732-1.732,1.885,1.878-1.885,1.885L76.06,78.888ZM77.938,77.6l-1.288,1.288,1.288,1.294,1.294-1.294Z" transform="translate(-66.542 -73.837)" fill="#314c7d"/>
          <path id="Path_91" data-name="Path 91" d="M80.986,78.742l1.732-1.732L84.6,78.888l-1.885,1.885L80.84,78.888ZM82.718,77.6l-1.288,1.288,1.288,1.294,1.294-1.294Z" transform="translate(-68.149 -73.837)" fill="#314c7d"/>
          <path id="Path_92" data-name="Path 92" d="M61.866,83.522,63.6,81.79l1.885,1.878L63.6,85.554,61.72,83.668l.146-.146ZM63.6,82.381l-1.288,1.288L63.6,84.963l1.294-1.294Z" transform="translate(-61.72 -75.444)" fill="#314c7d"/>
          <path id="Path_93" data-name="Path 93" d="M66.646,83.522l1.732-1.732,1.885,1.878-1.885,1.885L66.5,83.668Zm1.732-1.142-1.288,1.288,1.288,1.294,1.294-1.294Z" transform="translate(-63.327 -75.444)" fill="#314c7d"/>
          <path id="Path_94" data-name="Path 94" d="M71.426,83.522l1.732-1.732,1.885,1.878-1.885,1.885L71.28,83.668Zm1.732-1.142-1.288,1.288,1.288,1.294,1.294-1.294Z" transform="translate(-64.934 -75.444)" fill="#314c7d"/>
          <path id="Path_95" data-name="Path 95" d="M76.206,83.522l1.732-1.732,1.885,1.878-1.885,1.885L76.06,83.668Zm1.732-1.142-1.288,1.288,1.288,1.294,1.294-1.294Z" transform="translate(-66.542 -75.444)" fill="#314c7d"/>
          <path id="Path_96" data-name="Path 96" d="M80.986,83.522l1.732-1.732L84.6,83.668l-1.885,1.885L80.84,83.668Zm1.732-1.142-1.288,1.288,1.288,1.294,1.294-1.294Z" transform="translate(-68.149 -75.444)" fill="#314c7d"/>
          <path id="Path_97" data-name="Path 97" d="M61.866,88.3,63.6,86.57l1.885,1.878L63.6,90.334,61.72,88.448l.146-.146ZM63.6,87.161l-1.288,1.288L63.6,89.743l1.294-1.294Z" transform="translate(-61.72 -77.052)" fill="#314c7d"/>
          <path id="Path_98" data-name="Path 98" d="M66.646,88.3l1.732-1.732,1.885,1.878-1.885,1.885L66.5,88.448Zm1.732-1.142-1.288,1.288,1.288,1.294,1.294-1.294Z" transform="translate(-63.327 -77.052)" fill="#314c7d"/>
          <path id="Path_99" data-name="Path 99" d="M71.426,88.3l1.732-1.732,1.885,1.878-1.885,1.885L71.28,88.448Zm1.732-1.142-1.288,1.288,1.288,1.294,1.294-1.294Z" transform="translate(-64.934 -77.052)" fill="#314c7d"/>
          <path id="Path_100" data-name="Path 100" d="M76.206,88.3l1.732-1.732,1.885,1.878-1.885,1.885L76.06,88.448Zm1.732-1.142-1.288,1.288,1.288,1.294,1.294-1.294Z" transform="translate(-66.542 -77.052)" fill="#314c7d"/>
          <path id="Path_101" data-name="Path 101" d="M80.986,88.3l1.732-1.732L84.6,88.448l-1.885,1.885L80.84,88.448Zm1.732-1.142-1.288,1.288,1.288,1.294,1.294-1.294Z" transform="translate(-68.149 -77.052)" fill="#314c7d"/>
          <path id="Path_102" data-name="Path 102" d="M61.866,93.082,63.6,91.35l1.885,1.878L63.6,95.113,61.72,93.228l.146-.146ZM63.6,91.941l-1.288,1.288L63.6,94.523l1.294-1.294Z" transform="translate(-61.72 -78.659)" fill="#314c7d"/>
          <path id="Path_103" data-name="Path 103" d="M66.646,93.082l1.732-1.732,1.885,1.878-1.885,1.885L66.5,93.228Zm1.732-1.142-1.288,1.288,1.288,1.294,1.294-1.294Z" transform="translate(-63.327 -78.659)" fill="#314c7d"/>
          <path id="Path_104" data-name="Path 104" d="M71.426,93.082l1.732-1.732,1.885,1.878-1.885,1.885L71.28,93.228Zm1.732-1.142-1.288,1.288,1.288,1.294,1.294-1.294Z" transform="translate(-64.934 -78.659)" fill="#314c7d"/>
          <path id="Path_105" data-name="Path 105" d="M76.206,93.082l1.732-1.732,1.885,1.878-1.885,1.885L76.06,93.228Zm1.732-1.142-1.288,1.288,1.288,1.294,1.294-1.294Z" transform="translate(-66.542 -78.659)" fill="#314c7d"/>
          <path id="Path_106" data-name="Path 106" d="M80.986,93.082l1.732-1.732L84.6,93.228l-1.885,1.885L80.84,93.228Zm1.732-1.142-1.288,1.288,1.288,1.294,1.294-1.294Z" transform="translate(-68.149 -78.659)" fill="#314c7d"/>
        </g>
      </g>
    </g>
    <path id="Path_108" data-name="Path 108" d="M77.323,80.59v-7.54l-.312.305a4.722,4.722,0,0,1-2.94,1.487,4,4,0,0,1-2.894-1.155c-.119-.106-.246-.226-.365-.345a4.038,4.038,0,0,1-3.379,1.673,4.877,4.877,0,0,1-3.113-2.1v7.68a10.5,10.5,0,0,0,2.124,5.164A8.392,8.392,0,0,0,70.8,88.462a8.63,8.63,0,0,0,4.354-2.735,10.573,10.573,0,0,0,2.17-5.137Z" transform="translate(-30.661 -28.166)" fill="none" fill-rule="evenodd"/>
    <path id="Path_109" data-name="Path 109" d="M76.1,79.619V73.877c-.206.133-.4.252-.611.358a4.433,4.433,0,0,1-1.786.5,4.165,4.165,0,0,1-1.805-.305,5.71,5.71,0,0,1-1.474-.883,6.178,6.178,0,0,1-1.354.956,3.834,3.834,0,0,1-2.137.4A4.3,4.3,0,0,1,65,74.156l-.285-.206v5.682a12.278,12.278,0,0,0,.717,2.622,8.039,8.039,0,0,0,1.221,2.064,7.1,7.1,0,0,0,1.7,1.48,8.575,8.575,0,0,0,2.031.9,8.966,8.966,0,0,0,2.024-.923,7.368,7.368,0,0,0,1.712-1.487,8.471,8.471,0,0,0,1.235-2.064,12.421,12.421,0,0,0,.743-2.609Zm1.62-7.487v7.54l-.013.139a13.668,13.668,0,0,1-.856,3.04,9.933,9.933,0,0,1-1.487,2.469,8.907,8.907,0,0,1-2.091,1.832,10.641,10.641,0,0,1-2.662,1.168h-.438a10.1,10.1,0,0,1-2.668-1.148,8.612,8.612,0,0,1-2.1-1.819,9.584,9.584,0,0,1-1.467-2.489,13.271,13.271,0,0,1-.83-3.067l-.013-.126v-7.68l1.44-.5a6.333,6.333,0,0,0,1.367,1.328,2.6,2.6,0,0,0,1.2.478,2.255,2.255,0,0,0,1.248-.246,5.086,5.086,0,0,0,1.44-1.168l.564-.624c.312.305.617.611.936.9a4.243,4.243,0,0,0,1.2.77,2.64,2.64,0,0,0,1.115.192,3,3,0,0,0,1.148-.332,5.494,5.494,0,0,0,1.281-.936l1.679-1.673v1.951Z" transform="translate(-30.251 -27.248)" fill="#fff"/>
  </g>
</svg>
