<svg xmlns="http://www.w3.org/2000/svg" width="29.318" height="29.794" viewBox="0 0 29.318 29.794">
  <path id="Path_571" data-name="Path 571" d="M28.269,5.5A14.9,14.9,0,1,0,42.928,20.4,14.795,14.795,0,0,0,28.269,5.5ZM38.78,28.688h0a11.326,11.326,0,0,0-3.646-2.182A28.127,28.127,0,0,0,36,21.056h5.547A13.69,13.69,0,0,1,38.78,28.688ZM17.632,12.271h0A10.118,10.118,0,0,0,21.067,14a21.9,21.9,0,0,0-.848,5.731H15a13.7,13.7,0,0,1,2.636-7.464Zm9.837-4.909h0l-.246-.5c.11-.01.223-.019.337-.026V13.66a24.555,24.555,0,0,1-4.744-.557C24.493,8.819,27.3,7.44,27.469,7.362Zm1.512,7.632h0a22.487,22.487,0,0,0,4.88-.538,20.5,20.5,0,0,1,.777,5.278H28.981Zm0-1.321h0V7.482A11.153,11.153,0,0,1,33.434,13.2,21.315,21.315,0,0,1,28.981,13.673Zm0-6.758h0V6.841a.133.133,0,0,1,.036,0l-.036.071ZM27.56,14.984h0v4.75H21.589a20.629,20.629,0,0,1,.793-5.372A26.247,26.247,0,0,0,27.56,14.984Zm-7.328,6.071h0a27.977,27.977,0,0,0,.878,5.518,15.606,15.606,0,0,0-3.575,1.813A13.714,13.714,0,0,1,15,21.056Zm1.376,0H27.56v4.307a21.613,21.613,0,0,0-5.129.787,27.6,27.6,0,0,1-.822-5.094Zm5.952,5.628h0v6.965c-2.445-1.14-3.892-3.672-4.747-6.227A20.135,20.135,0,0,1,27.56,26.684ZM28.981,33.5h0V26.677a17.578,17.578,0,0,1,4.459.664c-.813,2.471-2.176,4.941-4.459,6.159Zm0-8.144h0v-4.3h5.638a27.772,27.772,0,0,1-.8,5.006,18.988,18.988,0,0,0-4.838-.706Zm7.027-5.621h0a21.937,21.937,0,0,0-.826-5.66,7.72,7.72,0,0,0,3.471-2.137,13.676,13.676,0,0,1,2.888,7.8ZM37.753,10.9h0a5.829,5.829,0,0,1-2.989,1.92,13.126,13.126,0,0,0-4.048-5.767A13.178,13.178,0,0,1,37.753,10.9ZM25.4,7.142h0a13.213,13.213,0,0,0-3.908,5.605,8.707,8.707,0,0,1-3.015-1.519A13.242,13.242,0,0,1,25.4,7.142Zm-7.033,22.3h0A14.021,14.021,0,0,1,21.5,27.853a13.08,13.08,0,0,0,3.491,5.7A13.265,13.265,0,0,1,18.367,29.439Zm12.745,4.216h0a12.986,12.986,0,0,0,3.636-5.861,9.915,9.915,0,0,1,3.167,1.927A13.2,13.2,0,0,1,31.112,33.655Z" transform="translate(-13.61 -5.5)" fill="#fff"/>
</svg>
