<svg id="process" xmlns="http://www.w3.org/2000/svg" width="58.5" height="58.5" viewBox="0 0 58.5 58.5">
  <path id="Path_23" data-name="Path 23" d="M298.419,288.772v-7.126l-2.73-.7c-.019-.046-.038-.092-.058-.138l1.437-2.422-5.039-5.039-2.422,1.437-.138-.058-.7-2.729h-7.126l-.7,2.73-.138.058-2.422-1.437-5.039,5.039,1.437,2.422-.058.138-2.729.7v7.126l2.73.7c.019.046.038.092.058.138l-1.437,2.422,5.039,5.039,2.422-1.437.138.058.7,2.729h7.126l.7-2.73.138-.058,2.422,1.437,5.039-5.039-1.437-2.422.058-.138Zm-3.72,2.96-2.967,2.967-2.017-1.2-.454.217a9.443,9.443,0,0,1-.9.373l-.475.169-.579,2.271h-4.2l-.579-2.271-.475-.169a8.9,8.9,0,0,1-.9-.373l-.454-.217-2.017,1.2-2.967-2.967,1.2-2.017-.217-.454a9.443,9.443,0,0,1-.373-.9l-.169-.475-2.272-.579v-4.2l2.271-.579.169-.475a8.884,8.884,0,0,1,.373-.9l.217-.454-1.2-2.017,2.967-2.967,2.017,1.2.454-.217a9.44,9.44,0,0,1,.9-.373l.475-.169.579-2.272h4.2l.579,2.271.475.169a8.886,8.886,0,0,1,.9.373l.454.217,2.017-1.2,2.967,2.967-1.2,2.017.217.454a9.44,9.44,0,0,1,.373.9l.169.475,2.272.579v4.2l-2.271.579-.169.475a8.9,8.9,0,0,1-.373.9l-.217.454Zm0,0" transform="translate(-239.919 -239.919)" fill="#fff"/>
  <path id="Path_24" data-name="Path 24" d="M327.548,320a7.548,7.548,0,1,0,7.548,7.548A7.557,7.557,0,0,0,327.548,320Zm0,13.21a5.661,5.661,0,1,1,5.661-5.661A5.667,5.667,0,0,1,327.548,333.21Zm0,0" transform="translate(-282.258 -282.258)" fill="#fff"/>
  <path id="Path_25" data-name="Path 25" d="M355.774,352a3.774,3.774,0,1,0,3.774,3.774A3.778,3.778,0,0,0,355.774,352Zm0,5.661a1.887,1.887,0,1,1,1.887-1.887A1.889,1.889,0,0,1,355.774,357.661Zm0,0" transform="translate(-310.484 -310.484)" fill="#fff"/>
  <path id="Path_26" data-name="Path 26" d="M157.969,15.976a5.671,5.671,0,0,0,1.58,2.385v.8l-4.486,1.682A4.738,4.738,0,0,0,152,25.261v4.933h22.645V25.261a4.741,4.741,0,0,0-3.061-4.418L167.1,19.161v-.8a5.659,5.659,0,0,0,1.58-2.385,3.773,3.773,0,0,0,3.137-3.71V8.492a8.492,8.492,0,0,0-16.984,0v3.774a3.773,3.773,0,0,0,3.138,3.71Zm7.242,3.577L163.323,22.7l-1.887-3.145v-.069a5.555,5.555,0,0,0,3.774,0Zm-5.123,1.421,1.9,3.169-1.89.944-1.221-3.661Zm12.671,4.287v3.046H153.888V25.261a2.844,2.844,0,0,1,1.837-2.651l1.387-.52L159,27.75l4.325-2.163,4.325,2.163,1.886-5.659,1.388.521a2.842,2.842,0,0,1,1.836,2.65Zm-4.991-3.834-1.221,3.662-1.89-.944,1.9-3.17Zm-4.444-3.5a3.778,3.778,0,0,1-3.774-3.774V10.315a7.3,7.3,0,0,0,3.774-1.506,7.3,7.3,0,0,0,3.774,1.506v3.838A3.778,3.778,0,0,1,163.323,17.927Zm5.661-4.036V10.642a1.87,1.87,0,0,1,0,3.249Zm-5.661-12a6.613,6.613,0,0,1,6.6,6.6v.525a3.733,3.733,0,0,0-1.887-.525h-.162a5.46,5.46,0,0,1-3.888-1.611l-.667-.668-.667.668a5.462,5.462,0,0,1-3.888,1.611h-.162a3.733,3.733,0,0,0-1.887.525V8.492a6.613,6.613,0,0,1,6.6-6.6Zm-5.661,8.754V13.89a1.87,1.87,0,0,1,0-3.249Zm0,0" transform="translate(-134.073)" fill="#fff"/>
  <path id="Path_27" data-name="Path 27" d="M0,312.532H18.871V288H0Zm1.887-22.645h15.1v20.758H1.887Zm0,0" transform="translate(0 -254.032)" fill="#fff"/>
  <path id="Path_28" data-name="Path 28" d="M32,320H43.323v1.887H32Zm0,0" transform="translate(-28.226 -282.258)" fill="#fff"/>
  <path id="Path_29" data-name="Path 29" d="M32,352h1.887v1.887H32Zm0,0" transform="translate(-28.226 -310.484)" fill="#fff"/>
  <path id="Path_30" data-name="Path 30" d="M64,352h7.548v1.887H64Zm0,0" transform="translate(-56.452 -310.484)" fill="#fff"/>
  <path id="Path_31" data-name="Path 31" d="M32,384H43.323v1.887H32Zm0,0" transform="translate(-28.226 -338.71)" fill="#fff"/>
  <path id="Path_32" data-name="Path 32" d="M32,416H43.323v1.887H32Zm0,0" transform="translate(-28.226 -366.935)" fill="#fff"/>
  <path id="Path_33" data-name="Path 33" d="M112,448h1.887v1.887H112Zm0,0" transform="translate(-98.79 -395.161)" fill="#fff"/>
  <path id="Path_34" data-name="Path 34" d="M32,448h7.548v1.887H32Zm0,0" transform="translate(-28.226 -395.161)" fill="#fff"/>
  <path id="Path_35" data-name="Path 35" d="M170.463,347.678l-1.334-1.334-4.441,4.441,4.441,4.441,1.334-1.334-2.164-2.164h7.158v-1.887H168.3Zm0,0" transform="translate(-145.263 -305.495)" fill="#fff"/>
  <path id="Path_36" data-name="Path 36" d="M73.887,80.672a.945.945,0,0,1,.944-.944h4.327l-2.164,2.164,1.334,1.334,4.441-4.441-4.441-4.441-1.334,1.334,2.164,2.164H74.831A2.834,2.834,0,0,0,72,80.672V97.656h1.887Zm0,0" transform="translate(-63.508 -65.575)" fill="#fff"/>
  <path id="Path_37" data-name="Path 37" d="M341.661,106.831v11.875l-2.164-2.164-1.334,1.334,4.441,4.441,4.441-4.441-1.334-1.334-2.164,2.164V106.831A2.834,2.834,0,0,0,340.718,104H336v1.887h4.718A.945.945,0,0,1,341.661,106.831Zm0,0" transform="translate(-296.371 -91.734)" fill="#fff"/>
</svg>
