<svg xmlns="http://www.w3.org/2000/svg" width="54.818" height="51.62" viewBox="0 0 54.818 51.62">
  <g id="training" transform="translate(0 -14.936)">
    <g id="Group_96" data-name="Group 96" transform="translate(0 14.936)">
      <g id="Group_95" data-name="Group 95">
        <path id="Path_43" data-name="Path 43" d="M247.851,98.283h4.5a.813.813,0,1,0,0-1.625h-4.5a.813.813,0,0,0,0,1.625Z" transform="translate(-220.588 -87.908)" fill="#fff"/>
        <path id="Path_44" data-name="Path 44" d="M250.2,137.245H247.85a.813.813,0,0,0,0,1.625H250.2a.813.813,0,0,0,0-1.625Z" transform="translate(-220.587 -124.15)" fill="#fff"/>
        <path id="Path_45" data-name="Path 45" d="M250.2,179.633H247.85a.813.813,0,0,0,0,1.625H250.2a.813.813,0,0,0,0-1.625Z" transform="translate(-220.587 -161.999)" fill="#fff"/>
        <path id="Path_46" data-name="Path 46" d="M250.2,222.02H247.85a.813.813,0,0,0,0,1.626H250.2a.813.813,0,0,0,0-1.626Z" transform="translate(-220.587 -199.848)" fill="#fff"/>
        <path id="Path_47" data-name="Path 47" d="M68.592,102.807H68V89.093a.813.813,0,0,0-.813-.813h-3.73a.813.813,0,0,0-.813.813v3.6h-2.1v-1.51a.813.813,0,0,0-.813-.813H56a.813.813,0,0,0-.813.813v6.565H52.272a.813.813,0,0,0-.813.813v4.242h-.416a.813.813,0,0,0,0,1.625h17.55a.813.813,0,0,0,0-1.625Zm-13.4,0h-2.1V99.377h2.1v3.429Zm3.73-9.3v9.3h-2.1V92h2.1Zm3.73,9.3h-2.1V94.322h2.1Zm3.73,0h-2.1v-12.9h2.1Z" transform="translate(-44.852 -80.427)" fill="#fff"/>
        <path id="Path_48" data-name="Path 48" d="M54.006,55.823a.813.813,0,0,0,.813-.813V52.191a5.851,5.851,0,0,0-3.462-5.34l-7.495-2.943V42.7a6.356,6.356,0,0,0,2.522-4.18,2.877,2.877,0,0,0,1.69-4.86V31.559a8.062,8.062,0,0,0-5.311-7.568V19.736a2.469,2.469,0,0,0-.813-4.8H24.106a.813.813,0,0,0,0,1.625H41.951a.844.844,0,1,1,0,1.687H2.469a.844.844,0,1,1,0-1.687H20.313a.813.813,0,1,0,0-1.625H2.469a2.469,2.469,0,0,0-.813,4.8V41.993a2.469,2.469,0,0,0,.813,4.8H28.847l-.133.052-.012,0a5.85,5.85,0,0,0-3.462,5.34V65.067a1.491,1.491,0,0,0,1.49,1.49h26.3a1.8,1.8,0,0,0,1.793-1.793V58.8a.813.813,0,1,0-1.625,0v5.961a.168.168,0,0,1-.167.167H48.858V57.6a.813.813,0,1,0-1.625,0v7.334H32.818V57.6a.813.813,0,0,0-1.625,0v7.334H26.866V52.191a4.23,4.23,0,0,1,2.451-3.836l6.932-2.722a.812.812,0,0,0,.215.3C39.75,48.83,39.616,48.8,40.026,48.8h0a.81.81,0,0,0,.539-.2l3.023-2.663a.811.811,0,0,0,.216-.305l6.933,2.723a4.23,4.23,0,0,1,2.453,3.836V55.01A.812.812,0,0,0,54.006,55.823ZM46.453,34.5a1.252,1.252,0,0,1,0,2.345Zm0-2.942v1.07a1.045,1.045,0,0,0-.273-.608l-2.119-2.278a1.031,1.031,0,0,0-1.379-.123,12.462,12.462,0,0,1-6.71,2.151c-1.244,0-1.633-.281-2.117.279a1.045,1.045,0,0,0-.248.581V31.559a6.423,6.423,0,0,1,12.846,0ZM3.282,19.875H41.138v3.713a8.056,8.056,0,0,0-9.161,7.971v2.106a2.874,2.874,0,0,0,1.69,4.861,6.313,6.313,0,0,0,1.578,3.329H3.282ZM33.6,34.5v2.344A1.252,1.252,0,0,1,33.6,34.5Zm2.591,9.41-3.2,1.258H2.469a.844.844,0,0,1,0-1.688h33.72Zm6.047,1.05-2.209,1.945L37.819,44.96c0-.1,0-.876,0-1.39a6.722,6.722,0,0,0,4.421,0v1.39Zm-4.8-3.372a4.727,4.727,0,0,1-2.212-4V33.372a13.708,13.708,0,0,0,7.986-2.154l1.617,1.739c0,5.333,0,4.547,0,4.733A4.822,4.822,0,0,1,37.436,41.588Z" transform="translate(0 -14.936)" fill="#fff"/>
      </g>
    </g>
  </g>
</svg>
