<svg id="verified" xmlns="http://www.w3.org/2000/svg" width="22.907" height="27.615" viewBox="0 0 22.907 27.615">
  <path id="Path_4" data-name="Path 4" d="M62.253,4.472,51.86.083a1.044,1.044,0,0,0-.813,0L40.654,4.472a1.079,1.079,0,0,0-.654,1V10.8A18.068,18.068,0,0,0,51.053,27.535a1.044,1.044,0,0,0,.8,0A18.068,18.068,0,0,0,62.907,10.8V5.468A1.079,1.079,0,0,0,62.253,4.472ZM60.786,10.8a15.925,15.925,0,0,1-9.332,14.561A15.924,15.924,0,0,1,42.121,10.8V6.188l9.332-3.941,9.332,3.941Zm-10.5,3.636L54.839,9.8a1.048,1.048,0,0,1,1.5,0,1.092,1.092,0,0,1,0,1.526l-5.308,5.4a1.048,1.048,0,0,1-1.5,0l-2.964-3.015a1.092,1.092,0,0,1,0-1.526,1.048,1.048,0,0,1,1.5,0Z" transform="translate(-40 0)" fill="#fff"/>
</svg>
